<svg width="55" height="21" viewBox="0 0 55 21" fill="none" xmlns="http://www.w3.org/2000/svg">
<rect width="54.3092" height="20.486" fill="white"/>
<path d="M10 14.7493L5.22028 10.6935C5.15044 10.6344 5.09505 10.5641 5.05725 10.4867C5.01945 10.4093 5 10.3264 5 10.2427C5 10.1589 5.01945 10.076 5.05725 9.99861C5.09505 9.92124 5.15044 9.85095 5.22028 9.79177L10 5.73663" stroke="#534F4F" stroke-width="2" stroke-linecap="round"/>
<path d="M21.208 10.362C21.7307 10.4553 22.174 10.7307 22.538 11.188C22.902 11.6453 23.084 12.1633 23.084 12.742C23.084 13.2367 22.9533 13.6847 22.692 14.086C22.44 14.478 22.0713 14.7907 21.586 15.024C21.1007 15.248 20.536 15.36 19.892 15.36H16V5.62999H19.71C20.3727 5.62999 20.942 5.74199 21.418 5.96599C21.894 6.18999 22.2533 6.49333 22.496 6.876C22.7387 7.24933 22.86 7.66932 22.86 8.13599C22.86 8.69599 22.7107 9.16267 22.412 9.536C22.1133 9.90933 21.712 10.1847 21.208 10.362ZM17.596 9.71799H19.57C20.0927 9.71799 20.4987 9.60133 20.788 9.368C21.0867 9.12533 21.236 8.78 21.236 8.332C21.236 7.89333 21.0867 7.55267 20.788 7.31C20.4987 7.058 20.0927 6.932 19.57 6.932H17.596V9.71799ZM19.752 14.058C20.2933 14.058 20.718 13.9273 21.026 13.666C21.334 13.4047 21.488 13.0407 21.488 12.574C21.488 12.098 21.3247 11.72 20.998 11.44C20.6713 11.16 20.2373 11.02 19.696 11.02H17.596V14.058H19.752ZM24.2864 11.468C24.2864 10.6933 24.445 10.0073 24.7624 9.41C25.089 8.81267 25.5277 8.35066 26.0784 8.02399C26.6384 7.68799 27.2544 7.52 27.9264 7.52C28.533 7.52 29.0604 7.64133 29.5084 7.884C29.9657 8.11733 30.3297 8.41133 30.6004 8.766V7.646H32.2105V15.36H30.6004V14.212C30.3297 14.576 29.961 14.8793 29.4944 15.122C29.0277 15.3647 28.4957 15.486 27.8984 15.486C27.2357 15.486 26.629 15.318 26.0784 14.982C25.5277 14.6367 25.089 14.1607 24.7624 13.554C24.445 12.938 24.2864 12.2427 24.2864 11.468ZM30.6004 11.496C30.6004 10.964 30.4884 10.502 30.2644 10.11C30.0497 9.71799 29.765 9.41932 29.4104 9.21399C29.0557 9.00866 28.673 8.90599 28.2624 8.90599C27.8517 8.90599 27.469 9.00866 27.1144 9.21399C26.7597 9.40999 26.4704 9.70399 26.2464 10.096C26.0317 10.4787 25.9244 10.936 25.9244 11.468C25.9244 12 26.0317 12.4667 26.2464 12.868C26.4704 13.2693 26.7597 13.5773 27.1144 13.792C27.4784 13.9973 27.861 14.1 28.2624 14.1C28.673 14.1 29.0557 13.9973 29.4104 13.792C29.765 13.5867 30.0497 13.288 30.2644 12.896C30.4884 12.4947 30.6004 12.028 30.6004 11.496ZM33.7746 11.496C33.7746 10.7027 33.9333 10.0073 34.2506 9.41C34.5773 8.80333 35.0253 8.33666 35.5946 8.00999C36.164 7.68332 36.8174 7.52 37.5547 7.52C38.4881 7.52 39.258 7.744 39.8646 8.192C40.4806 8.63067 40.8961 9.26066 41.1107 10.082H39.3887C39.2487 9.69933 39.0246 9.40067 38.7166 9.186C38.4086 8.97133 38.0214 8.864 37.5547 8.864C36.9014 8.864 36.3786 9.09733 35.9866 9.564C35.604 10.0213 35.4127 10.6653 35.4127 11.496C35.4127 12.3267 35.604 12.9753 35.9866 13.442C36.3786 13.9087 36.9014 14.142 37.5547 14.142C38.4787 14.142 39.0901 13.736 39.3887 12.924H41.1107C40.8867 13.708 40.4667 14.3333 39.8507 14.8C39.2347 15.2573 38.4694 15.486 37.5547 15.486C36.8174 15.486 36.164 15.3227 35.5946 14.996C35.0253 14.66 34.5773 14.1933 34.2506 13.596C33.9333 12.9893 33.7746 12.2893 33.7746 11.496ZM45.7532 11.51L49.3092 15.36H47.1533L44.2972 12.042V15.36H42.7012V5H44.2972V11.02L47.0973 7.646H49.3092L45.7532 11.51Z" fill="black" fill-opacity="0.34"/>
</svg>
