<svg width="104" height="134" viewBox="0 0 104 134" fill="none" xmlns="http://www.w3.org/2000/svg">
<path d="M43.0131 88.4619C35.924 88.4619 29.2503 85.6916 24.2189 80.6601C19.1899 75.6287 16.4196 68.955 16.4171 61.866C16.4171 54.777 19.1875 48.1009 24.2189 43.071C32.9765 34.3122 46.4321 32.7219 56.9432 39.2112C57.0781 39.2946 57.1953 39.4038 57.288 39.5325C57.3807 39.6612 57.4471 39.8069 57.4835 39.9613C57.5199 40.1157 57.5255 40.2757 57.5 40.4323C57.4745 40.5889 57.4184 40.7389 57.335 40.8737C57.1668 41.1461 56.8972 41.3405 56.5857 41.4142C56.2741 41.4879 55.9461 41.4349 55.6737 41.2667C46.1208 35.3741 33.89 36.8148 25.9277 44.7795C21.3542 49.3541 18.8339 55.4224 18.8339 61.866C18.8363 68.3085 21.3542 74.3782 25.9277 78.9514C30.5036 83.5248 36.5706 86.0452 43.0131 86.0452H43.0155C49.46 86.0452 55.5274 83.5248 60.1029 78.9514C68.0676 70.9891 69.5092 58.7604 63.6121 49.2087C63.444 48.936 63.3911 48.6076 63.465 48.2959C63.5389 47.9841 63.7336 47.7145 64.0062 47.5462C64.141 47.4625 64.291 47.4063 64.4476 47.3807C64.6041 47.3552 64.7642 47.3608 64.9186 47.3973C65.073 47.4339 65.2186 47.5005 65.3472 47.5935C65.4757 47.6865 65.5846 47.804 65.6676 47.9392C72.1572 58.4488 70.5714 71.9047 61.8114 80.6598C56.7803 85.6913 50.1045 88.4616 43.0152 88.4616C43.0155 88.4619 43.0155 88.4619 43.0131 88.4619Z" fill="#FF6600" stroke="#FF6600" stroke-width="4"/>
<path d="M43.0155 79.9713C38.3758 79.9713 33.7389 78.2059 30.2086 74.6753C23.148 67.6099 23.148 56.1185 30.2086 49.0579C36.0044 43.2608 44.9978 42.0729 52.0726 46.1693C52.2101 46.2486 52.3306 46.3543 52.4272 46.4802C52.5238 46.6061 52.5947 46.7499 52.6357 46.9032C52.6767 47.0565 52.687 47.2164 52.6661 47.3738C52.6452 47.5311 52.5935 47.6828 52.5139 47.8201C52.3528 48.097 52.0885 48.2988 51.7789 48.3813C51.4693 48.4638 51.1396 48.4203 50.862 48.2602C44.7333 44.7099 36.9412 45.7422 31.917 50.7664C25.7977 56.8854 25.7977 66.8451 31.917 72.9666C38.0364 79.0835 47.9949 79.0835 54.1163 72.9666C59.1429 67.9352 60.1715 60.1418 56.6156 54.0086C56.5358 53.8714 56.4838 53.7197 56.4627 53.5624C56.4416 53.405 56.4517 53.2451 56.4925 53.0916C56.5332 52.9382 56.6038 52.7943 56.7003 52.6682C56.7967 52.5421 56.9171 52.4362 57.0545 52.3567C57.3319 52.1968 57.6614 52.1532 57.971 52.2354C58.2805 52.3176 58.5449 52.519 58.7064 52.7956C62.8101 59.8752 61.6255 68.8743 55.8251 74.675C52.2918 78.206 47.6527 79.9664 43.0155 79.9713Z" fill="#FF6600" stroke="#FF6600" stroke-width="4"/>
<path d="M43.0131 71.5229C40.5398 71.5229 38.0669 70.5789 36.1858 68.7005C32.4194 64.9293 32.4194 58.8018 36.1858 55.0358C38.3592 52.8588 41.3445 51.8594 44.3933 52.298C45.0543 52.3935 45.512 53.006 45.4177 53.6667C45.3234 54.3275 44.7236 54.7852 44.049 54.6909C41.7671 54.3568 39.5251 55.1098 37.8946 56.7439C35.0698 59.5687 35.0698 64.1645 37.8946 66.9918C40.7194 69.8141 45.314 69.8093 48.1388 66.9918C49.7717 65.354 50.5198 63.1072 50.1894 60.8277C50.1442 60.5109 50.2264 60.1892 50.418 59.9328C50.6095 59.6765 50.8948 59.5066 51.2114 59.4602C51.8743 59.3777 52.4858 59.8235 52.5801 60.4843C53.0212 63.5228 52.0255 66.5151 49.8473 68.7005C47.9616 70.5786 45.4884 71.5229 43.0131 71.5229ZM58.7203 127.112H27.3058C27.1471 127.112 26.99 127.081 26.8434 127.02C26.6968 126.959 26.5636 126.87 26.4516 126.757L21.6184 121.925C21.5062 121.813 21.4172 121.679 21.3564 121.533C21.2957 121.386 21.2644 121.229 21.2645 121.07V104.155C21.2642 103.996 21.2953 103.839 21.3559 103.692C21.4165 103.546 21.5055 103.412 21.6177 103.3C21.73 103.188 21.8633 103.099 22.01 103.038C22.1567 102.978 22.3139 102.947 22.4727 102.947H63.5531C63.7119 102.946 63.8691 102.977 64.0159 103.038C64.1626 103.099 64.2959 103.188 64.4082 103.3C64.5204 103.412 64.6094 103.546 64.67 103.692C64.7306 103.839 64.7616 103.996 64.7613 104.155V121.07C64.7613 121.229 64.7301 121.386 64.6693 121.533C64.6086 121.679 64.5196 121.813 64.4074 121.925L59.5746 126.757C59.4624 126.87 59.3293 126.959 59.1827 127.02C59.0361 127.08 58.879 127.112 58.7203 127.112ZM27.8061 124.695H58.22L62.3449 120.57V105.363H23.6809V120.57L27.8061 124.695Z" fill="#FF6600" stroke="#FF6600" stroke-width="4"/>
<path d="M63.6205 105.292H22.5401C22.2197 105.292 21.9125 105.165 21.686 104.938C21.4595 104.712 21.3321 104.405 21.3319 104.084V96.5938C9.21415 89.0184 2 76.0631 2 61.7953C2 39.1408 20.4281 20.7112 43.0804 20.7112C65.7325 20.7112 84.1606 39.1405 84.1606 61.7953C84.1606 76.0631 76.9467 89.0233 64.8287 96.5938V104.084C64.8286 104.404 64.7012 104.712 64.4747 104.938C64.2482 105.165 63.9409 105.292 63.6205 105.292ZM23.7483 102.876H62.4123V95.9191C62.4123 95.4944 62.6342 95.1027 62.9951 94.8805C74.7356 87.8057 81.7442 75.4353 81.7442 61.7953C81.7442 40.4741 64.3992 23.1279 43.0804 23.1279C21.7614 23.1279 4.41641 40.4741 4.41641 61.7953C4.41641 75.4353 11.4253 87.8057 23.1655 94.8853C23.3435 94.9928 23.4907 95.1445 23.5928 95.3256C23.6949 95.5067 23.7485 95.7112 23.7483 95.9191V102.876ZM43.0804 131.874C33.9807 131.874 31.2384 126.597 31.1254 126.371C31.0545 126.229 31.0123 126.074 31.0011 125.916C30.99 125.758 31.01 125.6 31.0602 125.449C31.1104 125.299 31.1897 125.16 31.2937 125.04C31.3976 124.921 31.524 124.823 31.6658 124.752C31.8069 124.68 31.9608 124.637 32.1185 124.625C32.2763 124.613 32.4349 124.633 32.5851 124.682C32.7354 124.732 32.8743 124.811 32.994 124.914C33.1136 125.018 33.2117 125.144 33.2824 125.285C33.3885 125.483 35.5879 129.458 43.0808 129.458C50.6014 129.458 52.789 125.45 52.8788 125.281C53.1877 124.695 53.9123 124.46 54.5023 124.762C55.0924 125.064 55.3306 125.781 55.0358 126.371C54.9222 126.597 52.1802 131.874 43.0804 131.874Z" fill="#FF6600" stroke="#FF6600" stroke-width="4"/>
<path d="M42.8726 63C42.758 63.0001 42.6445 62.9776 42.5386 62.9338C42.4328 62.8899 42.3366 62.8256 42.2557 62.7444C42.1747 62.6635 42.1103 62.5673 42.0665 62.4615C42.0226 62.3556 42 62.2422 42 62.1276C42 62.0131 42.0226 61.8996 42.0665 61.7938C42.1103 61.688 42.1747 61.5918 42.2557 61.5108L81.5106 22.2557C81.5916 22.1746 81.6877 22.1103 81.7936 22.0665C81.8994 22.0226 82.0129 22 82.1275 22C82.242 22 82.3555 22.0226 82.4613 22.0665C82.5672 22.1103 82.6633 22.1746 82.7443 22.2557C82.8253 22.3367 82.8897 22.4328 82.9335 22.5387C82.9774 22.6445 83 22.7579 83 22.8725C83 22.9871 82.9774 23.1005 82.9335 23.2064C82.8897 23.3122 82.8253 23.4083 82.7443 23.4893L43.4892 62.7446C43.4083 62.8257 43.3122 62.89 43.2063 62.9339C43.1005 62.9777 42.9871 63.0002 42.8726 63Z" fill="#FF6600" stroke="#FF6600" stroke-width="4"/>
<path d="M81.9812 24.1025C81.8226 24.1026 81.6656 24.0714 81.519 24.0108C81.3725 23.9502 81.2393 23.8614 81.1271 23.7493C81.0149 23.6372 80.926 23.5041 80.8652 23.3576C80.8045 23.2111 80.7733 23.054 80.7733 22.8955C80.7729 22.5753 80.8996 22.268 81.1257 22.0412C81.3517 21.8144 81.6586 21.6867 81.9788 21.6861L88.3175 21.6812L98.2857 11.7121L94.753 11.1057C94.5966 11.0791 94.4469 11.0219 94.3126 10.9374C94.1783 10.8529 94.062 10.7427 93.9703 10.6131C93.8786 10.4835 93.8135 10.3372 93.7785 10.1824C93.7435 10.0276 93.7394 9.8674 93.7664 9.71102C93.8798 9.05387 94.5073 8.61012 95.1608 8.72469L100.994 9.72523C101.441 9.8008 101.806 10.1194 101.943 10.5501C102.08 10.9809 101.964 11.4506 101.646 11.7701L89.6723 23.744C89.5602 23.8562 89.427 23.9452 89.2805 24.006C89.1339 24.0667 88.9768 24.098 88.8181 24.0979L81.9812 24.1025Z" fill="#FF6600" stroke="#FF6600" stroke-width="4"/>
<path d="M81.9812 24.1025C81.6608 24.1024 81.3536 23.9751 81.1271 23.7485C80.9005 23.5219 80.7733 23.2146 80.7733 22.8943L80.7757 16.0552C80.7757 15.7342 80.903 15.4274 81.1294 15.201L93.0848 3.24591C93.2409 3.08948 93.4371 2.97902 93.6519 2.92662C93.8666 2.87421 94.0916 2.88188 94.3023 2.94877C94.5131 3.01523 94.7015 3.13826 94.8471 3.30445C94.9928 3.47065 95.09 3.67363 95.1281 3.89127L96.1474 9.70589C96.175 9.86226 96.1714 10.0225 96.137 10.1775C96.1026 10.3325 96.0379 10.4792 95.9467 10.6092C95.8555 10.7392 95.7396 10.8499 95.6056 10.9351C95.4716 11.0202 95.3221 11.0781 95.1656 11.1054C94.5121 11.2139 93.8822 10.7811 93.7664 10.1236L93.1482 6.59817L83.1918 16.5555L83.1894 22.894C83.1892 23.2144 83.0619 23.5216 82.8354 23.7482C82.6088 23.9748 82.3016 24.1022 81.9812 24.1025Z" fill="#FF6600" stroke="#FF6600" stroke-width="4"/>
</svg>
