<svg width="15" height="15" viewBox="0 0 15 15" fill="none" xmlns="http://www.w3.org/2000/svg">
<path d="M7.5 0C5.58068 0 3.66099 0.731863 2.1966 2.19631C-0.7322 5.12518 -0.7322 9.87449 2.1966 12.8033C5.12539 15.7322 9.87461 15.7322 12.8034 12.8033C15.7322 9.87447 15.7322 5.12516 12.8034 2.19631C11.339 0.731863 9.41933 0 7.5 0ZM7.5 1.95917C8.91798 1.95917 10.3364 2.49952 11.4183 3.58145C13.5821 5.74531 13.5821 9.2543 11.4183 11.4182C9.25447 13.582 5.74556 13.582 3.58172 11.4182C1.4179 9.25431 1.41791 5.74531 3.58172 3.58145C4.66364 2.49952 6.08203 1.95917 7.5 1.95917ZM6.73282 3.218V6.72164H4.79108V8.63962H8.65076V3.218H6.73282Z" fill="#777777"/>
</svg>
