<svg fill="currentColor" preserveAspectRatio="xMidYMid meet" height="25" width="25" viewBox="0 0 30 30"><g fill="none" fill-rule="evenodd"><rect height="77" opacity=".1" rx="10" stroke="#000" width="265" x="-22.5" y="-22.5"></rect><g transform="translate(1 1)"><path d="m0 13.5172414h28v10.6206896c0 2.1329618-1.7291072 3.862069-3.862069 3.862069h-20.27586203c-2.1329618 0-3.86206897-1.7291072-3.86206897-3.862069z" fill="#ffb321" stroke="#775a00" stroke-width="1.029885"></path><path d="m0 21.2413793c0 2.1329618 1.72910717 3.862069 3.86206897 3.862069h20.27586203c2.1329618 0 3.862069-1.7291072 3.862069-3.862069v2.8965517c0 2.1329618-1.7291072 3.862069-3.862069 3.862069h-20.27586203c-2.1329618 0-3.86206897-1.7291072-3.86206897-3.862069z" fill="#ef8c13"></path><path d="m0 13.5172414h28v10.6206896c0 2.1329618-1.7291072 3.862069-3.862069 3.862069h-20.27586203c-2.1329618 0-3.86206897-1.7291072-3.86206897-3.862069z" stroke="#000" stroke-width="1.75"></path><g transform="translate(10.62069)"><path d="m1.8098781 10.5487426c-2.4131708-2.4131708-2.4131708-6.32569371 0-8.7388645 2.41317079-2.4131708 6.3256937-2.4131708 8.7388645 0 2.4131708 2.41317079 2.4131708 6.3256937 0 8.7388645s-6.32569371 2.4131708-8.7388645 0z" fill="#ffb321" stroke="#775a00" stroke-width="1.029885"></path><path d="m10.8558876 1.71251829c2.4131708 2.4131708 2.4131708 6.3256937 0 8.73886451-2.41317079 2.4131708-6.32569369 2.4131708-8.73886449 0-.33181098-.331811-.61799796-.6919691-.85856092-1.07267888 2.38874153 1.50915108 5.58517685 1.22285848 7.66639093-.85835561 2.08135978-2.08135981 2.36754678-5.27809703.85856093-7.66618563.38018815.24010629.74051685.52639891 1.07247355.85835561z" fill="#ef8c13"></path><path d="m1.8098781 10.5487426c-2.4131708-2.4131708-2.4131708-6.32569371 0-8.7388645 2.41317079-2.4131708 6.3256937-2.4131708 8.7388645 0 2.4131708 2.41317079 2.4131708 6.3256937 0 8.7388645s-6.32569371 2.4131708-8.7388645 0z" stroke="#000" stroke-width="1.75"></path></g><g stroke="#000" stroke-linecap="round" stroke-width="1.75"><path d="m6.648454 2.071156-4.779066 4.779067" transform="matrix(.70710678 .70710678 -.70710678 .70710678 4.401593 -1.705006)"></path><path d="m6.248524 6.333156-2.048171 2.048171" transform="matrix(.70710678 .70710678 -.70710678 .70710678 6.732557 -1.53935)"></path></g></g></g></svg>