<svg width="144" height="57" viewBox="0 0 144 57" fill="none" xmlns="http://www.w3.org/2000/svg">
<g filter="url(#filter0_dd_48_33)">
<rect x="8" y="6" width="128" height="41" rx="4" fill="white"/>
<rect x="14" y="11.5" width="30" height="30" rx="4" fill="url(#paint0_linear_48_33)"/>
<path d="M37.7933 20.8581C38.7515 24.6807 36.2872 28.5832 32.2898 29.5736C31.7996 29.6955 31.2987 29.7697 30.7941 29.7951L26.346 36.8414C25.99 37.4052 25.4285 37.81 24.7791 37.971L22.2229 38.6046C21.8897 38.6872 21.5373 38.6348 21.243 38.459C20.9486 38.2832 20.7366 37.9983 20.6534 37.667L20.0771 35.3667C19.9927 35.0304 19.9774 34.6806 20.0321 34.3382C20.0869 33.9959 20.2105 33.668 20.3957 33.3743L24.4838 26.8985C23.9356 26.1666 23.5394 25.3334 23.3184 24.4476C22.3601 20.625 24.8231 16.7225 28.8206 15.7308C32.8181 14.7391 36.835 17.0355 37.7933 20.8568V20.8581ZM31.1152 24.7103C31.4491 24.6322 31.764 24.4889 32.0417 24.2887C32.3195 24.0886 32.5544 23.8356 32.733 23.5444C32.9117 23.2532 33.0303 22.9296 33.0822 22.5924C33.1341 22.2552 33.1181 21.9111 33.0351 21.5801C32.9522 21.2491 32.804 20.9378 32.5992 20.6642C32.3943 20.3907 32.1368 20.1603 31.8417 19.9865C31.5466 19.8127 31.2198 19.6989 30.8801 19.6517C30.5404 19.6046 30.1947 19.625 29.863 19.7118C29.2045 19.8842 28.6406 20.3076 28.2936 20.8904C27.9466 21.4732 27.8444 22.1684 28.009 22.8257C28.1737 23.4829 28.592 24.0492 29.1733 24.4019C29.7547 24.7546 30.4523 24.8654 31.1152 24.7103V24.7103Z" stroke="white" stroke-width="1.8"/>
<path d="M54.46 23L51.016 19.184V23H49.924V14.636H51.016V18.512L54.472 14.636H55.852L52.06 18.824L55.888 23H54.46ZM63.1076 19.46C63.1076 19.668 63.0956 19.888 63.0716 20.12H57.8156C57.8556 20.768 58.0756 21.276 58.4756 21.644C58.8836 22.004 59.3756 22.184 59.9516 22.184C60.4236 22.184 60.8156 22.076 61.1276 21.86C61.4476 21.636 61.6716 21.34 61.7996 20.972H62.9756C62.7996 21.604 62.4476 22.12 61.9196 22.52C61.3916 22.912 60.7356 23.108 59.9516 23.108C59.3276 23.108 58.7676 22.968 58.2716 22.688C57.7836 22.408 57.3996 22.012 57.1196 21.5C56.8396 20.98 56.6996 20.38 56.6996 19.7C56.6996 19.02 56.8356 18.424 57.1076 17.912C57.3796 17.4 57.7596 17.008 58.2476 16.736C58.7436 16.456 59.3116 16.316 59.9516 16.316C60.5756 16.316 61.1276 16.452 61.6076 16.724C62.0876 16.996 62.4556 17.372 62.7116 17.852C62.9756 18.324 63.1076 18.86 63.1076 19.46ZM61.9796 19.232C61.9796 18.816 61.8876 18.46 61.7036 18.164C61.5196 17.86 61.2676 17.632 60.9476 17.48C60.6356 17.32 60.2876 17.24 59.9036 17.24C59.3516 17.24 58.8796 17.416 58.4876 17.768C58.1036 18.12 57.8836 18.608 57.8276 19.232H61.9796ZM70.213 16.424L66.253 26.096H65.125L66.421 22.928L63.769 16.424H64.981L67.045 21.752L69.085 16.424H70.213ZM83.2699 16.424L81.2179 23H80.0899L78.5059 17.78L76.9219 23H75.7939L73.7299 16.424H74.8459L76.3579 21.944L77.9899 16.424H79.1059L80.7019 21.956L82.1899 16.424H83.2699ZM84.9177 15.356C84.7097 15.356 84.5337 15.284 84.3897 15.14C84.2457 14.996 84.1737 14.82 84.1737 14.612C84.1737 14.404 84.2457 14.228 84.3897 14.084C84.5337 13.94 84.7097 13.868 84.9177 13.868C85.1177 13.868 85.2857 13.94 85.4217 14.084C85.5657 14.228 85.6377 14.404 85.6377 14.612C85.6377 14.82 85.5657 14.996 85.4217 15.14C85.2857 15.284 85.1177 15.356 84.9177 15.356ZM85.4457 16.424V23H84.3537V16.424H85.4457ZM88.6388 17.324V21.2C88.6388 21.52 88.7068 21.748 88.8428 21.884C88.9788 22.012 89.2148 22.076 89.5508 22.076H90.3548V23H89.3708C88.7628 23 88.3068 22.86 88.0028 22.58C87.6988 22.3 87.5468 21.84 87.5468 21.2V17.324H86.6948V16.424H87.5468V14.768H88.6388V16.424H90.3548V17.324H88.6388ZM94.9419 16.304C95.4379 16.304 95.8859 16.412 96.2859 16.628C96.6859 16.836 96.9979 17.152 97.2219 17.576C97.4539 18 97.5699 18.516 97.5699 19.124V23H96.4899V19.28C96.4899 18.624 96.3259 18.124 95.9979 17.78C95.6699 17.428 95.2219 17.252 94.6539 17.252C94.0779 17.252 93.6179 17.432 93.2739 17.792C92.9379 18.152 92.7699 18.676 92.7699 19.364V23H91.6779V14.12H92.7699V17.36C92.9859 17.024 93.2819 16.764 93.6579 16.58C94.0419 16.396 94.4699 16.304 94.9419 16.304Z" fill="black" fill-opacity="0.5"/>
<path d="M53.172 37.098C52.528 37.098 51.9493 36.986 51.436 36.762C50.932 36.5287 50.5353 36.2113 50.246 35.81C49.9567 35.3993 49.8073 34.928 49.798 34.396H51.156C51.2027 34.8533 51.3893 35.2407 51.716 35.558C52.052 35.866 52.5373 36.02 53.172 36.02C53.7787 36.02 54.2547 35.8707 54.6 35.572C54.9547 35.264 55.132 34.872 55.132 34.396C55.132 34.0227 55.0293 33.7193 54.824 33.486C54.6187 33.2527 54.362 33.0753 54.054 32.954C53.746 32.8327 53.3307 32.702 52.808 32.562C52.164 32.394 51.646 32.226 51.254 32.058C50.8713 31.89 50.54 31.6287 50.26 31.274C49.9893 30.91 49.854 30.4247 49.854 29.818C49.854 29.286 49.9893 28.8147 50.26 28.404C50.5307 27.9933 50.9087 27.676 51.394 27.452C51.8887 27.228 52.4533 27.116 53.088 27.116C54.0027 27.116 54.7493 27.3447 55.328 27.802C55.916 28.2593 56.2473 28.866 56.322 29.622H54.922C54.8753 29.2487 54.6793 28.922 54.334 28.642C53.9887 28.3527 53.5313 28.208 52.962 28.208C52.43 28.208 51.996 28.348 51.66 28.628C51.324 28.8987 51.156 29.2813 51.156 29.776C51.156 30.1307 51.254 30.42 51.45 30.644C51.6553 30.868 51.9027 31.0407 52.192 31.162C52.4907 31.274 52.906 31.4047 53.438 31.554C54.082 31.7313 54.6 31.9087 54.992 32.086C55.384 32.254 55.72 32.52 56 32.884C56.28 33.2387 56.42 33.724 56.42 34.34C56.42 34.816 56.294 35.264 56.042 35.684C55.79 36.104 55.4167 36.4447 54.922 36.706C54.4273 36.9673 53.844 37.098 53.172 37.098ZM61.6408 37.126C60.9221 37.126 60.2688 36.9627 59.6808 36.636C59.1021 36.3093 58.6448 35.8473 58.3088 35.25C57.9821 34.6433 57.8188 33.9433 57.8188 33.15C57.8188 32.366 57.9868 31.6753 58.3228 31.078C58.6681 30.4713 59.1348 30.0093 59.7228 29.692C60.3108 29.3653 60.9688 29.202 61.6968 29.202C62.4248 29.202 63.0828 29.3653 63.6708 29.692C64.2588 30.0093 64.7208 30.4667 65.0568 31.064C65.4021 31.6613 65.5748 32.3567 65.5748 33.15C65.5748 33.9433 65.3975 34.6433 65.0428 35.25C64.6975 35.8473 64.2261 36.3093 63.6288 36.636C63.0315 36.9627 62.3688 37.126 61.6408 37.126ZM61.6408 36.006C62.0981 36.006 62.5275 35.8987 62.9288 35.684C63.3301 35.4693 63.6521 35.1473 63.8948 34.718C64.1468 34.2887 64.2728 33.766 64.2728 33.15C64.2728 32.534 64.1515 32.0113 63.9088 31.582C63.6661 31.1527 63.3488 30.8353 62.9568 30.63C62.5648 30.4153 62.1401 30.308 61.6828 30.308C61.2161 30.308 60.7868 30.4153 60.3948 30.63C60.0121 30.8353 59.7041 31.1527 59.4708 31.582C59.2375 32.0113 59.1208 32.534 59.1208 33.15C59.1208 33.7753 59.2328 34.3027 59.4568 34.732C59.6901 35.1613 59.9981 35.4833 60.3808 35.698C60.7635 35.9033 61.1835 36.006 61.6408 36.006ZM68.5239 26.64V37H67.2499V26.64H68.5239ZM77.4992 29.328V37H76.2252V35.866C75.9825 36.258 75.6419 36.566 75.2032 36.79C74.7739 37.0047 74.2979 37.112 73.7752 37.112C73.1779 37.112 72.6412 36.9907 72.1652 36.748C71.6892 36.496 71.3112 36.1227 71.0312 35.628C70.7605 35.1333 70.6252 34.5313 70.6252 33.822V29.328H71.8852V33.654C71.8852 34.41 72.0765 34.9933 72.4592 35.404C72.8419 35.8053 73.3645 36.006 74.0272 36.006C74.7085 36.006 75.2452 35.796 75.6372 35.376C76.0292 34.956 76.2252 34.3447 76.2252 33.542V29.328H77.4992ZM81.2043 30.378V34.9C81.2043 35.2733 81.2836 35.5393 81.4423 35.698C81.6009 35.8473 81.8763 35.922 82.2683 35.922H83.2063V37H82.0583C81.3489 37 80.8169 36.8367 80.4623 36.51C80.1076 36.1833 79.9303 35.6467 79.9303 34.9V30.378H78.9363V29.328H79.9303V27.396H81.2043V29.328H83.2063V30.378H81.2043ZM85.4079 28.082C85.1652 28.082 84.9599 27.998 84.7919 27.83C84.6239 27.662 84.5399 27.4567 84.5399 27.214C84.5399 26.9713 84.6239 26.766 84.7919 26.598C84.9599 26.43 85.1652 26.346 85.4079 26.346C85.6412 26.346 85.8372 26.43 85.9959 26.598C86.1639 26.766 86.2479 26.9713 86.2479 27.214C86.2479 27.4567 86.1639 27.662 85.9959 27.83C85.8372 27.998 85.6412 28.082 85.4079 28.082ZM86.0239 29.328V37H84.7499V29.328H86.0239ZM91.5412 37.126C90.8225 37.126 90.1692 36.9627 89.5812 36.636C89.0025 36.3093 88.5452 35.8473 88.2092 35.25C87.8825 34.6433 87.7192 33.9433 87.7192 33.15C87.7192 32.366 87.8872 31.6753 88.2232 31.078C88.5685 30.4713 89.0352 30.0093 89.6232 29.692C90.2112 29.3653 90.8692 29.202 91.5972 29.202C92.3252 29.202 92.9832 29.3653 93.5712 29.692C94.1592 30.0093 94.6212 30.4667 94.9572 31.064C95.3025 31.6613 95.4752 32.3567 95.4752 33.15C95.4752 33.9433 95.2979 34.6433 94.9432 35.25C94.5979 35.8473 94.1265 36.3093 93.5292 36.636C92.9319 36.9627 92.2692 37.126 91.5412 37.126ZM91.5412 36.006C91.9985 36.006 92.4279 35.8987 92.8292 35.684C93.2305 35.4693 93.5525 35.1473 93.7952 34.718C94.0472 34.2887 94.1732 33.766 94.1732 33.15C94.1732 32.534 94.0519 32.0113 93.8092 31.582C93.5665 31.1527 93.2492 30.8353 92.8572 30.63C92.4652 30.4153 92.0405 30.308 91.5832 30.308C91.1165 30.308 90.6872 30.4153 90.2952 30.63C89.9125 30.8353 89.6045 31.1527 89.3712 31.582C89.1379 32.0113 89.0212 32.534 89.0212 33.15C89.0212 33.7753 89.1332 34.3027 89.3572 34.732C89.5905 35.1613 89.8985 35.4833 90.2812 35.698C90.6639 35.9033 91.0839 36.006 91.5412 36.006ZM100.888 29.188C101.822 29.188 102.578 29.4727 103.156 30.042C103.735 30.602 104.024 31.414 104.024 32.478V37H102.764V32.66C102.764 31.8947 102.573 31.3113 102.19 30.91C101.808 30.4993 101.285 30.294 100.622 30.294C99.9503 30.294 99.4136 30.504 99.0123 30.924C98.6203 31.344 98.4243 31.9553 98.4243 32.758V37H97.1503V29.328H98.4243V30.42C98.6763 30.028 99.0169 29.7247 99.4463 29.51C99.8849 29.2953 100.366 29.188 100.888 29.188ZM108.821 37.126C108.233 37.126 107.706 37.028 107.239 36.832C106.773 36.6267 106.404 36.3467 106.133 35.992C105.863 35.628 105.713 35.2127 105.685 34.746H107.001C107.039 35.1287 107.216 35.4413 107.533 35.684C107.86 35.9267 108.285 36.048 108.807 36.048C109.293 36.048 109.675 35.9407 109.955 35.726C110.235 35.5113 110.375 35.2407 110.375 34.914C110.375 34.578 110.226 34.3307 109.927 34.172C109.629 34.004 109.167 33.8407 108.541 33.682C107.972 33.5327 107.505 33.3833 107.141 33.234C106.787 33.0753 106.479 32.8467 106.217 32.548C105.965 32.24 105.839 31.8387 105.839 31.344C105.839 30.952 105.956 30.5927 106.189 30.266C106.423 29.9393 106.754 29.6827 107.183 29.496C107.613 29.3 108.103 29.202 108.653 29.202C109.503 29.202 110.189 29.4167 110.711 29.846C111.234 30.2753 111.514 30.8633 111.551 31.61H110.277C110.249 31.2087 110.086 30.8867 109.787 30.644C109.498 30.4013 109.106 30.28 108.611 30.28C108.154 30.28 107.79 30.378 107.519 30.574C107.249 30.77 107.113 31.0267 107.113 31.344C107.113 31.596 107.193 31.806 107.351 31.974C107.519 32.1327 107.725 32.2633 107.967 32.366C108.219 32.4593 108.565 32.5667 109.003 32.688C109.554 32.8373 110.002 32.9867 110.347 33.136C110.693 33.276 110.987 33.4907 111.229 33.78C111.481 34.0693 111.612 34.4473 111.621 34.914C111.621 35.334 111.505 35.712 111.271 36.048C111.038 36.384 110.707 36.65 110.277 36.846C109.857 37.0327 109.372 37.126 108.821 37.126Z" fill="black" fill-opacity="0.8"/>
<path d="M130 23.1714L124.6 29.5354C124.521 29.6283 124.428 29.7021 124.325 29.7524C124.222 29.8027 124.111 29.8286 124 29.8286C123.888 29.8286 123.778 29.8027 123.675 29.7524C123.572 29.7021 123.478 29.6283 123.399 29.5354L118 23.1714" stroke="black" stroke-linecap="round"/>
</g>
<defs>
<filter id="filter0_dd_48_33" x="0" y="0" width="144" height="57" filterUnits="userSpaceOnUse" color-interpolation-filters="sRGB">
<feFlood flood-opacity="0" result="BackgroundImageFix"/>
<feColorMatrix in="SourceAlpha" type="matrix" values="0 0 0 0 0 0 0 0 0 0 0 0 0 0 0 0 0 0 127 0" result="hardAlpha"/>
<feMorphology radius="2" operator="dilate" in="SourceAlpha" result="effect1_dropShadow_48_33"/>
<feOffset dy="2"/>
<feGaussianBlur stdDeviation="3"/>
<feColorMatrix type="matrix" values="0 0 0 0 0.235294 0 0 0 0 0.25098 0 0 0 0 0.262745 0 0 0 0.15 0"/>
<feBlend mode="normal" in2="BackgroundImageFix" result="effect1_dropShadow_48_33"/>
<feColorMatrix in="SourceAlpha" type="matrix" values="0 0 0 0 0 0 0 0 0 0 0 0 0 0 0 0 0 0 127 0" result="hardAlpha"/>
<feOffset dy="1"/>
<feGaussianBlur stdDeviation="1"/>
<feColorMatrix type="matrix" values="0 0 0 0 0.235294 0 0 0 0 0.25098 0 0 0 0 0.262745 0 0 0 0.3 0"/>
<feBlend mode="normal" in2="effect1_dropShadow_48_33" result="effect2_dropShadow_48_33"/>
<feBlend mode="normal" in="SourceGraphic" in2="effect2_dropShadow_48_33" result="shape"/>
</filter>
<linearGradient id="paint0_linear_48_33" x1="14" y1="26.5" x2="44" y2="26.5" gradientUnits="userSpaceOnUse">
<stop stop-color="#091E3A"/>
<stop offset="0.5" stop-color="#2F80ED"/>
<stop offset="1" stop-color="#2D9EE0"/>
</linearGradient>
</defs>
</svg>
