<svg width="29" height="30" viewBox="0 0 29 30" fill="none" xmlns="http://www.w3.org/2000/svg">
<path d="M25.0136 1.22317V25.6865C25.0136 26.3692 24.3147 26.9097 23.4319 26.9097H1.58174C0.69891 26.9097 0 26.3692 0 25.6865V1.22317C0 0.54047 0.69891 0 1.58174 0H23.3951C24.3147 0 25.0136 0.568916 25.0136 1.22317Z" fill="url(#paint0_linear_26_44)"/>
<path d="M15.2289 14.5358H4.26703C3.97275 14.5358 3.75204 14.7065 3.75204 14.9341C3.75204 15.1616 3.97275 15.3323 4.26703 15.3323H15.2657C15.5599 15.3323 15.7807 15.1616 15.7807 14.9341C15.7807 14.7065 15.5599 14.5358 15.2289 14.5358Z" fill="white"/>
<path d="M8.15668 18.6102H4.51499C4.22071 18.6102 4 18.7808 4 19.0084C4 19.236 4.22071 19.4066 4.51499 19.4066H8.15668C8.45096 19.4066 8.67166 19.236 8.67166 19.0084C8.67166 18.7808 8.48774 18.6102 8.15668 18.6102Z" fill="white"/>
<path d="M15.4768 15.6717H4.51499C4.22071 15.6717 4 15.8424 4 16.07C4 16.2975 4.22071 16.4682 4.51499 16.4682H15.5136C15.8079 16.4682 16.0286 16.2975 16.0286 16.07C16.0286 15.8424 15.8079 15.6717 15.4768 15.6717Z" fill="white"/>
<path d="M4.51499 13.4264H15.5136C15.8079 13.4264 16.0286 13.2557 16.0286 13.0282C16.0286 12.8006 15.8079 12.6299 15.5136 12.6299H4.51499C4.22071 12.6299 4 12.8006 4 13.0282C4 13.2557 4.22071 13.4264 4.51499 13.4264Z" fill="white"/>
<path d="M22.7913 19.1638L18.2316 20.9268L13.6163 19.1638L8 27.936L11.5032 27.6349L13.3382 30L18.2316 22.4749L23.125 30L24.96 27.6349L28.4632 27.936L22.7913 19.1638Z" fill="#017EF9"/>
<path d="M17.8815 25.558C21.221 25.558 23.9282 22.9064 23.9282 19.6354C23.9282 16.3644 21.221 13.7128 17.8815 13.7128C14.542 13.7128 11.8348 16.3644 11.8348 19.6354C11.8348 22.9064 14.542 25.558 17.8815 25.558Z" fill="#FFC54D"/>
<path d="M17.8815 24.0774C20.3861 24.0774 22.4165 22.0886 22.4165 19.6354C22.4165 17.1822 20.3861 15.1934 17.8815 15.1934C15.3769 15.1934 13.3465 17.1822 13.3465 19.6354C13.3465 22.0886 15.3769 24.0774 17.8815 24.0774Z" fill="#E8B04B"/>
<path d="M7.87194 9.15955H4.23025C3.93597 9.15955 3.71526 9.33022 3.71526 9.55779C3.71526 9.78535 3.93597 9.95603 4.23025 9.95603H7.87194C8.16621 9.95603 8.38692 9.78535 8.38692 9.55779C8.38692 9.33022 8.203 9.15955 7.87194 9.15955Z" fill="white"/>
<path d="M15.2289 7.22523H4.26703C3.97275 7.22523 3.75204 7.39591 3.75204 7.62348C3.75204 7.85104 3.97275 8.02172 4.26703 8.02172H15.2657C15.5599 8.02172 15.7807 7.85104 15.7807 7.62348C15.7807 7.39591 15.5599 7.22523 15.2289 7.22523Z" fill="white"/>
<path d="M15.2289 5.57538H4.26703C3.97275 5.57538 3.75204 5.74605 3.75204 5.97362C3.75204 6.20119 3.97275 6.37186 4.26703 6.37186H15.2657C15.5599 6.37186 15.7807 6.20119 15.7807 5.97362C15.7807 5.74605 15.5599 5.57538 15.2289 5.57538Z" fill="white"/>
<path d="M4.26703 4.46601H15.2657C15.5599 4.46601 15.7807 4.29533 15.7807 4.06777C15.7807 3.8402 15.5599 3.66953 15.2657 3.66953H4.26703C3.97275 3.66953 3.75204 3.8402 3.75204 4.06777C3.75204 4.29533 3.97275 4.46601 4.26703 4.46601Z" fill="white"/>
<defs>
<linearGradient id="paint0_linear_26_44" x1="-4.95304e-07" y1="13.4549" x2="30.8727" y2="43.7368" gradientUnits="userSpaceOnUse">
<stop stop-color="#91BDF8"/>
<stop offset="0.456342" stop-color="#959AFA"/>
<stop offset="0.563439" stop-color="#908EF8"/>
<stop offset="1" stop-color="#98CCEA"/>
</linearGradient>
</defs>
</svg>
