<svg width="800" height="800" viewBox="0 0 800 800" fill="none" xmlns="http://www.w3.org/2000/svg">
<g clip-path="url(#clip0_9_22)">
<path d="M400 483.333C446.024 483.333 483.333 446.024 483.333 400C483.333 353.976 446.024 316.667 400 316.667C353.976 316.667 316.667 353.976 316.667 400C316.667 446.024 353.976 483.333 400 483.333Z" fill="#5F6368"/>
<path d="M150 483.333C196.024 483.333 233.333 446.024 233.333 400C233.333 353.976 196.024 316.667 150 316.667C103.976 316.667 66.6667 353.976 66.6667 400C66.6667 446.024 103.976 483.333 150 483.333Z" fill="#5F6368"/>
<path d="M650 483.333C696.024 483.333 733.333 446.024 733.333 400C733.333 353.976 696.024 316.667 650 316.667C603.976 316.667 566.667 353.976 566.667 400C566.667 446.024 603.976 483.333 650 483.333Z" fill="#5F6368"/>
<path d="M400 733.333C446.024 733.333 483.333 696.024 483.333 650C483.333 603.976 446.024 566.667 400 566.667C353.976 566.667 316.667 603.976 316.667 650C316.667 696.024 353.976 733.333 400 733.333Z" fill="#5F6368"/>
<path d="M150 733.333C196.024 733.333 233.333 696.024 233.333 650C233.333 603.976 196.024 566.667 150 566.667C103.976 566.667 66.6667 603.976 66.6667 650C66.6667 696.024 103.976 733.333 150 733.333Z" fill="#5F6368"/>
<path d="M650 733.333C696.024 733.333 733.333 696.024 733.333 650C733.333 603.976 696.024 566.667 650 566.667C603.976 566.667 566.667 603.976 566.667 650C566.667 696.024 603.976 733.333 650 733.333Z" fill="#5F6368"/>
<path d="M400 233.333C446.024 233.333 483.333 196.024 483.333 150C483.333 103.976 446.024 66.6665 400 66.6665C353.976 66.6665 316.667 103.976 316.667 150C316.667 196.024 353.976 233.333 400 233.333Z" fill="#5F6368"/>
<path d="M150 233.333C196.024 233.333 233.333 196.024 233.333 150C233.333 103.976 196.024 66.6665 150 66.6665C103.976 66.6665 66.6667 103.976 66.6667 150C66.6667 196.024 103.976 233.333 150 233.333Z" fill="#5F6368"/>
<path d="M650 233.333C696.024 233.333 733.333 196.024 733.333 150C733.333 103.976 696.024 66.6665 650 66.6665C603.976 66.6665 566.667 103.976 566.667 150C566.667 196.024 603.976 233.333 650 233.333Z" fill="#5F6368"/>
</g>
<defs>
<clipPath id="clip0_9_22">
<rect width="800" height="800" fill="white"/>
</clipPath>
</defs>
</svg>
