<svg width="162" height="23" viewBox="0 0 162 23" fill="none" xmlns="http://www.w3.org/2000/svg">
<path d="M5.332 17.5781V22.8516H24.668V17.5781H5.332Z" fill="#FF9F00"/>
<path d="M15 17.5781H24.668V22.8516H15V17.5781Z" fill="#FF7816"/>
<path d="M24.7559 9.914L23.332 12.6913H6.668L5.2441 9.914C7.3359 7.0136 10.9747 5.2734 15 5.2734C19.0253 5.2734 22.6641 7.0136 24.7559 9.914Z" fill="#FF4B00"/>
<path d="M24.7559 9.914L23.332 12.6913H15V5.2734C19.0253 5.2734 22.6641 7.0136 24.7559 9.914Z" fill="#CC1E0D"/>
<path d="M27.9551 8.1562L24.6679 19.3359H5.332L2.0448 8.1562L4.2597 7.3125C5.2617 9.2285 7.1777 10.3534 8.7421 10.5468H9.6563C11.6778 10.2305 13.1893 7.1367 13.8047 4.1835H16.1954C16.8107 7.1367 18.3224 10.2305 20.3437 10.5468H21.2578C22.8222 10.3534 24.7382 9.2285 25.7403 7.3125L27.9551 8.1562Z" fill="#FDBF00"/>
<path d="M27.9552 8.1562L24.668 19.3359H15V4.1835H16.1952C16.8107 7.1367 18.3222 10.2305 20.3437 10.5468H21.2579C22.8223 10.3534 24.7382 9.2285 25.7403 7.3125L27.9552 8.1562Z" fill="#FF9F00"/>
<path d="M2.6953 8.7891C1.2415 8.7891 0 7.6062 0 6.1523C0 4.6985 1.2415 3.5156 2.6953 3.5156C4.1492 3.5156 5.332 4.6985 5.332 6.1523C5.332 7.6062 4.1492 8.7891 2.6953 8.7891Z" fill="#FF9F00"/>
<path d="M27.3047 8.7891C25.8508 8.7891 24.668 7.6062 24.668 6.1523C24.668 4.6985 25.8508 3.5156 27.3047 3.5156C28.7585 3.5156 30 4.6985 30 6.1523C30 7.6062 28.7585 8.7891 27.3047 8.7891Z" fill="#FF7816"/>
<path d="M15 0C13.5409 0 12.3633 1.1776 12.3633 2.6367C12.3633 4.0956 13.5409 5.2734 15 5.2734C16.4591 5.2734 17.6367 4.0956 17.6367 2.6367C17.6367 1.1776 16.4591 0 15 0Z" fill="#FF9F00"/>
<path d="M15 10.1777L11.9941 13.1836L15 16.1895L18.0059 13.1836L15 10.1777Z" fill="#FF4B00"/>
<path d="M20.2734 13.6984L21.5163 14.9412L20.2734 16.184L19.0306 14.9412L20.2734 13.6984Z" fill="#CC1E0D"/>
<path d="M9.7266 13.6984L10.9694 14.9412L9.7266 16.184L8.4837 14.9412L9.7266 13.6984Z" fill="#FF4B00"/>
<path d="M15 5.2734V0C16.4591 0 17.6367 1.1776 17.6367 2.6367C17.6367 4.0956 16.4591 5.2734 15 5.2734Z" fill="#FF7816"/>
<path d="M18.0059 13.1836L15 16.1895V10.1777L18.0059 13.1836Z" fill="#CC1E0D"/>
<path d="M42.854 12.0938C42.854 12.5884 42.7373 13.0551 42.504 13.4938C42.2707 13.9324 41.8973 14.2918 41.384 14.5718C40.8707 14.8424 40.2127 14.9778 39.41 14.9778H37.646V18.9258H36.05V9.1958H39.41C40.1567 9.1958 40.7867 9.3264 41.3 9.5878C41.8227 9.8398 42.21 10.1851 42.462 10.6238C42.7233 11.0624 42.854 11.5524 42.854 12.0938ZM39.41 13.6758C40.0167 13.6758 40.4693 13.5404 40.768 13.2698C41.0667 12.9898 41.216 12.5978 41.216 12.0938C41.216 11.0298 40.614 10.4978 39.41 10.4978H37.646V13.6758H39.41ZM45.9722 12.3318C46.2055 11.9398 46.5135 11.6364 46.8962 11.4218C47.2882 11.1978 47.7502 11.0858 48.2822 11.0858V12.7378H47.8762C47.2508 12.7378 46.7748 12.8964 46.4482 13.2138C46.1308 13.5311 45.9722 14.0818 45.9722 14.8658V18.9258H44.3762V11.2118H45.9722V12.3318ZM56.8192 14.8798C56.8192 15.1691 56.8006 15.4304 56.7632 15.6638H50.8692C50.9159 16.2798 51.1446 16.7744 51.5552 17.1478C51.9659 17.5211 52.4699 17.7078 53.0672 17.7078C53.9259 17.7078 54.5326 17.3484 54.8872 16.6298H56.6092C56.3759 17.3391 55.9512 17.9224 55.3352 18.3798C54.7286 18.8278 53.9726 19.0518 53.0672 19.0518C52.3299 19.0518 51.6672 18.8884 51.0792 18.5618C50.5006 18.2258 50.0432 17.7591 49.7072 17.1618C49.3806 16.5551 49.2172 15.8551 49.2172 15.0618C49.2172 14.2684 49.3759 13.5731 49.6932 12.9758C50.0199 12.3691 50.4726 11.9024 51.0512 11.5758C51.6392 11.2491 52.3112 11.0858 53.0672 11.0858C53.7952 11.0858 54.4439 11.2444 55.0132 11.5618C55.5826 11.8791 56.0259 12.3271 56.3432 12.9058C56.6606 13.4751 56.8192 14.1331 56.8192 14.8798ZM55.1532 14.3758C55.1439 13.7878 54.9339 13.3164 54.5232 12.9618C54.1126 12.6071 53.6039 12.4298 52.9972 12.4298C52.4466 12.4298 51.9752 12.6071 51.5832 12.9618C51.1912 13.3071 50.9579 13.7784 50.8832 14.3758H55.1532ZM67.7278 11.0858C68.3345 11.0858 68.8758 11.2118 69.3518 11.4638C69.8372 11.7158 70.2152 12.0891 70.4858 12.5838C70.7658 13.0784 70.9058 13.6758 70.9058 14.3758V18.9258H69.3238V14.6138C69.3238 13.9231 69.1512 13.3958 68.8058 13.0318C68.4605 12.6584 67.9892 12.4718 67.3918 12.4718C66.7945 12.4718 66.3185 12.6584 65.9638 13.0318C65.6185 13.3958 65.4458 13.9231 65.4458 14.6138V18.9258H63.8638V14.6138C63.8638 13.9231 63.6912 13.3958 63.3458 13.0318C63.0005 12.6584 62.5292 12.4718 61.9318 12.4718C61.3345 12.4718 60.8585 12.6584 60.5038 13.0318C60.1585 13.3958 59.9858 13.9231 59.9858 14.6138V18.9258H58.3898V11.2118H59.9858V12.0938C60.2472 11.7764 60.5785 11.5291 60.9798 11.3518C61.3812 11.1744 61.8105 11.0858 62.2678 11.0858C62.8838 11.0858 63.4345 11.2164 63.9198 11.4778C64.4052 11.7391 64.7785 12.1171 65.0398 12.6118C65.2732 12.1451 65.6372 11.7764 66.1318 11.5058C66.6265 11.2258 67.1585 11.0858 67.7278 11.0858ZM73.7487 10.1898C73.4594 10.1898 73.2167 10.0918 73.0207 9.8958C72.8247 9.6998 72.7267 9.4571 72.7267 9.1678C72.7267 8.8784 72.8247 8.6358 73.0207 8.4398C73.2167 8.2438 73.4594 8.1458 73.7487 8.1458C74.0287 8.1458 74.2667 8.2438 74.4627 8.4398C74.6587 8.6358 74.7567 8.8784 74.7567 9.1678C74.7567 9.4571 74.6587 9.6998 74.4627 9.8958C74.2667 10.0918 74.0287 10.1898 73.7487 10.1898ZM74.5327 11.2118V18.9258H72.9367V11.2118H74.5327ZM83.6141 11.2118V18.9258H82.0181V18.0158C81.7661 18.3331 81.4348 18.5851 81.0241 18.7718C80.6228 18.9491 80.1935 19.0378 79.7361 19.0378C79.1295 19.0378 78.5835 18.9118 78.0981 18.6598C77.6221 18.4078 77.2441 18.0344 76.9641 17.5398C76.6935 17.0451 76.5581 16.4478 76.5581 15.7478V11.2118H78.1401V15.5098C78.1401 16.2004 78.3128 16.7324 78.6581 17.1058C79.0035 17.4698 79.4748 17.6518 80.0721 17.6518C80.6695 17.6518 81.1408 17.4698 81.4861 17.1058C81.8408 16.7324 82.0181 16.2004 82.0181 15.5098V11.2118H83.6141ZM95.058 11.0858C95.665 11.0858 96.206 11.2118 96.682 11.4638C97.167 11.7158 97.545 12.0891 97.816 12.5838C98.096 13.0784 98.236 13.6758 98.236 14.3758V18.9258H96.654V14.6138C96.654 13.9231 96.481 13.3958 96.136 13.0318C95.791 12.6584 95.319 12.4718 94.722 12.4718C94.125 12.4718 93.649 12.6584 93.294 13.0318C92.949 13.3958 92.776 13.9231 92.776 14.6138V18.9258H91.194V14.6138C91.194 13.9231 91.021 13.3958 90.676 13.0318C90.331 12.6584 89.859 12.4718 89.262 12.4718C88.665 12.4718 88.189 12.6584 87.834 13.0318C87.489 13.3958 87.316 13.9231 87.316 14.6138V18.9258H85.7199V11.2118H87.316V12.0938C87.577 11.7764 87.909 11.5291 88.31 11.3518C88.711 11.1744 89.141 11.0858 89.598 11.0858C90.214 11.0858 90.765 11.2164 91.25 11.4778C91.735 11.7391 92.109 12.1171 92.37 12.6118C92.603 12.1451 92.967 11.7764 93.462 11.5058C93.957 11.2258 94.489 11.0858 95.058 11.0858ZM114.152 9.1958V18.9258H112.556V12.2618L109.588 18.9258H108.482L105.5 12.2618V18.9258H103.904V9.1958H105.626L109.042 16.8258L112.444 9.1958H114.152ZM123.319 14.8798C123.319 15.1691 123.301 15.4304 123.263 15.6638H117.369C117.416 16.2798 117.645 16.7744 118.055 17.1478C118.466 17.5211 118.97 17.7078 119.567 17.7078C120.426 17.7078 121.033 17.3484 121.387 16.6298H123.109C122.876 17.3391 122.451 17.9224 121.835 18.3798C121.229 18.8278 120.473 19.0518 119.567 19.0518C118.83 19.0518 118.167 18.8884 117.579 18.5618C117.001 18.2258 116.543 17.7591 116.207 17.1618C115.881 16.5551 115.717 15.8551 115.717 15.0618C115.717 14.2684 115.876 13.5731 116.193 12.9758C116.52 12.3691 116.973 11.9024 117.551 11.5758C118.139 11.2491 118.811 11.0858 119.567 11.0858C120.295 11.0858 120.944 11.2444 121.513 11.5618C122.083 11.8791 122.526 12.3271 122.843 12.9058C123.161 13.4751 123.319 14.1331 123.319 14.8798ZM121.653 14.3758C121.644 13.7878 121.434 13.3164 121.023 12.9618C120.613 12.6071 120.104 12.4298 119.497 12.4298C118.947 12.4298 118.475 12.6071 118.083 12.9618C117.691 13.3071 117.458 13.7784 117.383 14.3758H121.653ZM134.228 11.0858C134.835 11.0858 135.376 11.2118 135.852 11.4638C136.337 11.7158 136.715 12.0891 136.986 12.5838C137.266 13.0784 137.406 13.6758 137.406 14.3758V18.9258H135.824V14.6138C135.824 13.9231 135.651 13.3958 135.306 13.0318C134.961 12.6584 134.489 12.4718 133.892 12.4718C133.295 12.4718 132.819 12.6584 132.464 13.0318C132.119 13.3958 131.946 13.9231 131.946 14.6138V18.9258H130.364V14.6138C130.364 13.9231 130.191 13.3958 129.846 13.0318C129.501 12.6584 129.029 12.4718 128.432 12.4718C127.835 12.4718 127.359 12.6584 127.004 13.0318C126.659 13.3958 126.486 13.9231 126.486 14.6138V18.9258H124.89V11.2118H126.486V12.0938C126.747 11.7764 127.079 11.5291 127.48 11.3518C127.881 11.1744 128.311 11.0858 128.768 11.0858C129.384 11.0858 129.935 11.2164 130.42 11.4778C130.905 11.7391 131.279 12.1171 131.54 12.6118C131.773 12.1451 132.137 11.7764 132.632 11.5058C133.127 11.2258 133.659 11.0858 134.228 11.0858ZM141.033 12.3598C141.303 11.9864 141.672 11.6831 142.139 11.4498C142.615 11.2071 143.142 11.0858 143.721 11.0858C144.402 11.0858 145.018 11.2491 145.569 11.5758C146.119 11.9024 146.553 12.3691 146.871 12.9758C147.188 13.5731 147.347 14.2591 147.347 15.0338C147.347 15.8084 147.188 16.5038 146.871 17.1198C146.553 17.7264 146.115 18.2024 145.555 18.5478C145.004 18.8838 144.393 19.0518 143.721 19.0518C143.123 19.0518 142.591 18.9351 142.125 18.7018C141.667 18.4684 141.303 18.1698 141.033 17.8058V18.9258H139.437V8.5658H141.033V12.3598ZM145.723 15.0338C145.723 14.5018 145.611 14.0444 145.387 13.6618C145.172 13.2698 144.883 12.9758 144.519 12.7798C144.164 12.5744 143.781 12.4718 143.371 12.4718C142.969 12.4718 142.587 12.5744 142.223 12.7798C141.868 12.9851 141.579 13.2838 141.355 13.6758C141.14 14.0678 141.033 14.5298 141.033 15.0618C141.033 15.5938 141.14 16.0604 141.355 16.4618C141.579 16.8538 141.868 17.1524 142.223 17.3578C142.587 17.5631 142.969 17.6658 143.371 17.6658C143.781 17.6658 144.164 17.5631 144.519 17.3578C144.883 17.1431 145.172 16.8351 145.387 16.4338C145.611 16.0324 145.723 15.5658 145.723 15.0338ZM155.995 14.8798C155.995 15.1691 155.976 15.4304 155.939 15.6638H150.045C150.092 16.2798 150.32 16.7744 150.731 17.1478C151.142 17.5211 151.646 17.7078 152.243 17.7078C153.102 17.7078 153.708 17.3484 154.063 16.6298H155.785C155.552 17.3391 155.127 17.9224 154.511 18.3798C153.904 18.8278 153.148 19.0518 152.243 19.0518C151.506 19.0518 150.843 18.8884 150.255 18.5618C149.676 18.2258 149.219 17.7591 148.883 17.1618C148.556 16.5551 148.393 15.8551 148.393 15.0618C148.393 14.2684 148.552 13.5731 148.869 12.9758C149.196 12.3691 149.648 11.9024 150.227 11.5758C150.815 11.2491 151.487 11.0858 152.243 11.0858C152.971 11.0858 153.62 11.2444 154.189 11.5618C154.758 11.8791 155.202 12.3271 155.519 12.9058C155.836 13.4751 155.995 14.1331 155.995 14.8798ZM154.329 14.3758C154.32 13.7878 154.11 13.3164 153.699 12.9618C153.288 12.6071 152.78 12.4298 152.173 12.4298C151.622 12.4298 151.151 12.6071 150.759 12.9618C150.367 13.3071 150.134 13.7784 150.059 14.3758H154.329ZM159.162 12.3318C159.395 11.9398 159.703 11.6364 160.086 11.4218C160.478 11.1978 160.94 11.0858 161.472 11.0858V12.7378H161.066C160.44 12.7378 159.964 12.8964 159.638 13.2138C159.32 13.5311 159.162 14.0818 159.162 14.8658V18.9258H157.566V11.2118H159.162V12.3318Z" fill="black" fill-opacity="0.78"/>
</svg>
