<svg width="172" height="43" viewBox="0 0 172 43" fill="none" xmlns="http://www.w3.org/2000/svg">
<g filter="url(#filter0_dd_37_136)">
<rect x="5" y="5" width="159.678" height="31" rx="4" fill="white"/>
<path d="M45.026 27.4725H31.5265C30.9052 27.4725 30.4016 26.9689 30.4016 26.3476V17.9105C30.4016 17.2891 30.9052 16.7855 31.5265 16.7855H45.026C45.6474 16.7855 46.1509 17.2891 46.1509 17.9105V26.3476C46.1509 26.9689 45.6474 27.4725 45.026 27.4725Z" fill="#00C3FF"/>
<path d="M32.1962 22.8031L27.8974 22.0867C27.1718 21.9657 26.7556 21.1924 27.0544 20.5202L28.2688 17.7877C28.5396 17.1783 29.144 16.7856 29.8108 16.7856H31.5266H36.0264L34.8981 15.2813C34.5401 14.8039 34.0071 14.4884 33.4163 14.404L27.5572 13.5669C26.8424 13.4648 26.1131 13.5612 25.4494 13.8457L19.5446 16.3764C19.061 16.5836 18.549 16.7364 18.0271 16.7857H18.0269H17.4647V25.2228H31.996C32.6687 25.2228 33.2141 24.6775 33.2141 24.0048C33.214 23.4092 32.7835 22.901 32.1962 22.8031Z" fill="#F0C087"/>
<path d="M19.7145 16.3033L19.5447 16.3761C19.061 16.5834 18.5491 16.7361 18.0271 16.7854H18.0269H17.4647V25.2226H19.7146V16.3033H19.7145Z" fill="#E6AF78"/>
<path d="M33.214 19.5978H34.9014C35.212 19.5978 35.4639 19.8496 35.4639 20.1602V21.2852C35.4639 21.5958 35.212 21.8476 34.9014 21.8476H33.214C32.9034 21.8476 32.6516 21.5958 32.6516 21.2852V20.1602C32.6516 19.8496 32.9034 19.5978 33.214 19.5978Z" fill="#FFDC64"/>
<path d="M42.7761 21.8476C43.3974 21.8476 43.901 21.344 43.901 20.7227C43.901 20.1014 43.3974 19.5978 42.7761 19.5978C42.1548 19.5978 41.6512 20.1014 41.6512 20.7227C41.6512 21.344 42.1548 21.8476 42.7761 21.8476Z" fill="#FFDC64"/>
<path d="M40.5262 21.8476C41.1475 21.8476 41.6511 21.344 41.6511 20.7227C41.6511 20.1014 41.1475 19.5978 40.5262 19.5978C39.9049 19.5978 39.4013 20.1014 39.4013 20.7227C39.4013 21.344 39.9049 21.8476 40.5262 21.8476Z" fill="#FF5050"/>
<path d="M14.0898 25.785H17.4647C17.7753 25.785 18.0271 25.5332 18.0271 25.2226V16.7854C18.0271 16.4748 17.7753 16.223 17.4647 16.223H14.0898C13.7792 16.223 13.5273 16.4748 13.5273 16.7854V25.2226C13.5273 25.5332 13.7791 25.785 14.0898 25.785Z" fill="#E4EAF8"/>
<path d="M40.5262 23.5704H39.4013C39.1101 23.5704 38.8739 23.8065 38.8739 24.0977C38.8739 24.3889 39.11 24.6251 39.4013 24.6251H40.5262C40.8174 24.6251 41.0535 24.389 41.0535 24.0977C41.0535 23.8065 40.8174 23.5704 40.5262 23.5704Z" fill="black"/>
<path d="M43.9011 23.5704H42.7761C42.4849 23.5704 42.2488 23.8065 42.2488 24.0977C42.2488 24.3889 42.4849 24.6251 42.7761 24.6251H43.9011C44.1923 24.6251 44.4284 24.389 44.4284 24.0977C44.4283 23.8065 44.1923 23.5704 43.9011 23.5704Z" fill="black"/>
<path d="M37.1513 23.5704H36.0264C35.7352 23.5704 35.4991 23.8065 35.4991 24.0977C35.4991 24.3889 35.7351 24.6251 36.0264 24.6251H37.1513C37.4425 24.6251 37.6787 24.389 37.6787 24.0977C37.6787 23.8065 37.4425 23.5704 37.1513 23.5704Z" fill="black"/>
<path d="M35.9912 21.2854V20.1604C35.9912 19.5595 35.5024 19.0706 34.9014 19.0706H33.214C32.6131 19.0706 32.1242 19.5595 32.1242 20.1604V21.2854C32.1242 21.8863 32.6131 22.3752 33.214 22.3752H34.9014C35.5024 22.3752 35.9912 21.8863 35.9912 21.2854ZM34.9366 21.2854C34.9366 21.3048 34.9209 21.3205 34.9015 21.3205H33.2141C33.1947 21.3205 33.179 21.3048 33.179 21.2854V20.1604C33.179 20.141 33.1947 20.1253 33.2141 20.1253H34.9015C34.9209 20.1253 34.9366 20.141 34.9366 20.1604V21.2854Z" fill="black"/>
<path d="M42.7761 19.0706C42.3417 19.0706 41.9464 19.2393 41.6511 19.5143C41.3559 19.2393 40.9605 19.0706 40.5262 19.0706C39.6151 19.0706 38.8739 19.8118 38.8739 20.7229C38.8739 21.634 39.6151 22.3752 40.5262 22.3752C40.9605 22.3752 41.3559 22.2065 41.6511 21.9315C41.9464 22.2064 42.3418 22.3752 42.7761 22.3752C43.6872 22.3752 44.4284 21.634 44.4284 20.7229C44.4284 19.8118 43.6872 19.0706 42.7761 19.0706ZM40.5262 21.3205C40.1967 21.3205 39.9285 21.0524 39.9285 20.7228C39.9285 20.3933 40.1967 20.1252 40.5262 20.1252C40.8558 20.1252 41.1239 20.3933 41.1239 20.7228C41.1238 21.0524 40.8558 21.3205 40.5262 21.3205ZM42.7761 21.3205C42.4465 21.3205 42.1784 21.0524 42.1784 20.7228C42.1784 20.3933 42.4465 20.1252 42.7761 20.1252C43.1056 20.1252 43.3737 20.3933 43.3737 20.7228C43.3737 21.0524 43.1056 21.3205 42.7761 21.3205Z" fill="black"/>
<path d="M45.026 16.2582H36.29L35.32 14.9648C34.8748 14.3713 34.2253 13.9867 33.4909 13.8818L27.6318 13.0448C26.8209 12.9292 25.9946 13.0384 25.2417 13.361L19.3369 15.8917C19.0262 16.0248 18.7028 16.1218 18.3717 16.1827C18.1761 15.8896 17.8427 15.6958 17.4646 15.6958H14.0898C13.4889 15.6958 13 16.1846 13 16.7856V25.2227C13 25.8237 13.4889 26.3125 14.0898 26.3125H17.4647C17.8743 26.3125 18.2316 26.0851 18.4177 25.7501H29.8743V26.3477C29.8743 27.2588 30.6155 28 31.5266 28H45.0261C45.9372 28 46.6783 27.2588 46.6783 26.3477V17.9105C46.6783 16.9994 45.9371 16.2582 45.026 16.2582ZM19.7524 16.8608L25.6572 14.3302C26.2321 14.0838 26.8634 14.0003 27.4827 14.0887L33.3418 14.9257C33.7973 14.9908 34.2002 15.2293 34.4763 15.5974L34.9718 16.2581H29.8109C28.9365 16.2581 28.1421 16.7743 27.787 17.5733L26.5725 20.3058C26.3634 20.7763 26.3834 21.3063 26.6275 21.7598C26.8715 22.2133 27.3028 22.522 27.8109 22.6067L32.1097 23.3231C32.4441 23.3788 32.6869 23.6654 32.6869 24.0045C32.6869 24.3853 32.377 24.6952 31.9961 24.6952H18.5545V17.2212C18.9654 17.1463 19.3668 17.0261 19.7524 16.8608ZM29.8743 21.8815L27.9841 21.5665C27.8004 21.5359 27.6443 21.4243 27.5561 21.2603C27.4678 21.0962 27.4605 20.9045 27.5363 20.7344L28.7507 18.0019C28.9367 17.5833 29.3528 17.3129 29.8109 17.3129H29.9866C29.9144 17.4984 29.8743 17.6998 29.8743 17.9106V21.8815H29.8743ZM17.4647 25.2578H14.0898C14.0704 25.2578 14.0547 25.2421 14.0547 25.2227V16.7855C14.0547 16.7661 14.0704 16.7504 14.0898 16.7504H17.4647C17.4841 16.7504 17.4998 16.7661 17.4998 16.7855V25.2227C17.4998 25.2421 17.4841 25.2578 17.4647 25.2578ZM45.6237 26.3476C45.6237 26.6771 45.3556 26.9453 45.026 26.9453H31.5265C31.197 26.9453 30.9289 26.6771 30.9289 26.3476V25.7499H31.9959C32.7399 25.7499 33.3762 25.2819 33.627 24.625H33.7764C34.0676 24.625 34.3038 24.3889 34.3038 24.0977C34.3038 23.8065 34.0677 23.5703 33.7764 23.5703H33.686C33.5187 22.9129 32.9802 22.3991 32.2828 22.2828L30.9288 22.0572V17.9104C30.9288 17.5808 31.1969 17.3127 31.5265 17.3127H45.0259C45.3555 17.3127 45.6236 17.5808 45.6236 17.9104V26.3476H45.6237Z" fill="black"/>
<path d="M15.7772 24.0506C16.0684 24.0506 16.3045 23.8145 16.3045 23.5233C16.3045 23.232 16.0684 22.9959 15.7772 22.9959C15.4859 22.9959 15.2498 23.232 15.2498 23.5233C15.2498 23.8145 15.4859 24.0506 15.7772 24.0506Z" fill="black"/>
<path d="M55.9343 25.098C55.281 25.098 54.693 24.986 54.1703 24.762C53.6477 24.5287 53.237 24.202 52.9383 23.782C52.6397 23.362 52.4903 22.872 52.4903 22.312H54.1983C54.2357 22.732 54.399 23.0773 54.6883 23.348C54.987 23.6187 55.4023 23.754 55.9343 23.754C56.485 23.754 56.9143 23.6233 57.2223 23.362C57.5303 23.0913 57.6843 22.746 57.6843 22.326C57.6843 21.9993 57.5863 21.7333 57.3903 21.528C57.2037 21.3227 56.9657 21.164 56.6763 21.052C56.3963 20.94 56.0043 20.8187 55.5003 20.688C54.8657 20.52 54.3477 20.352 53.9463 20.184C53.5543 20.0067 53.2183 19.736 52.9383 19.372C52.6583 19.008 52.5183 18.5227 52.5183 17.916C52.5183 17.356 52.6583 16.866 52.9383 16.446C53.2183 16.026 53.6103 15.704 54.1143 15.48C54.6183 15.256 55.2017 15.144 55.8643 15.144C56.807 15.144 57.577 15.382 58.1743 15.858C58.781 16.3247 59.117 16.9687 59.1823 17.79H57.4183C57.3903 17.4353 57.2223 17.132 56.9143 16.88C56.6063 16.628 56.2003 16.502 55.6963 16.502C55.239 16.502 54.8657 16.6187 54.5763 16.852C54.287 17.0853 54.1423 17.4213 54.1423 17.86C54.1423 18.1587 54.231 18.406 54.4083 18.602C54.595 18.7887 54.8283 18.938 55.1083 19.05C55.3883 19.162 55.771 19.2833 56.2563 19.414C56.9003 19.5913 57.423 19.7687 57.8243 19.946C58.235 20.1233 58.5803 20.3987 58.8603 20.772C59.1497 21.136 59.2943 21.626 59.2943 22.242C59.2943 22.7367 59.159 23.2033 58.8883 23.642C58.627 24.0807 58.2397 24.4353 57.7263 24.706C57.2223 24.9673 56.625 25.098 55.9343 25.098ZM68.1636 17.286V25H66.5676V24.09C66.3156 24.4073 65.9842 24.6593 65.5736 24.846C65.1722 25.0233 64.7429 25.112 64.2856 25.112C63.6789 25.112 63.1329 24.986 62.6476 24.734C62.1716 24.482 61.7936 24.1087 61.5136 23.614C61.2429 23.1193 61.1076 22.522 61.1076 21.822V17.286H62.6896V21.584C62.6896 22.2747 62.8622 22.8067 63.2076 23.18C63.5529 23.544 64.0242 23.726 64.6216 23.726C65.2189 23.726 65.6902 23.544 66.0356 23.18C66.3902 22.8067 66.5676 22.2747 66.5676 21.584V17.286H68.1636ZM71.8654 18.434C72.136 18.0607 72.5047 17.7573 72.9714 17.524C73.4474 17.2813 73.9747 17.16 74.5534 17.16C75.2347 17.16 75.8507 17.3233 76.4014 17.65C76.952 17.9767 77.386 18.4433 77.7034 19.05C78.0207 19.6473 78.1794 20.3333 78.1794 21.108C78.1794 21.8827 78.0207 22.578 77.7034 23.194C77.386 23.8007 76.9474 24.2767 76.3874 24.622C75.8367 24.958 75.2254 25.126 74.5534 25.126C73.956 25.126 73.424 25.0093 72.9574 24.776C72.5 24.5427 72.136 24.244 71.8654 23.88V25H70.2694V14.64H71.8654V18.434ZM76.5554 21.108C76.5554 20.576 76.4434 20.1187 76.2194 19.736C76.0047 19.344 75.7154 19.05 75.3514 18.854C74.9967 18.6487 74.614 18.546 74.2034 18.546C73.802 18.546 73.4194 18.6487 73.0554 18.854C72.7007 19.0593 72.4114 19.358 72.1874 19.75C71.9727 20.142 71.8654 20.604 71.8654 21.136C71.8654 21.668 71.9727 22.1347 72.1874 22.536C72.4114 22.928 72.7007 23.2267 73.0554 23.432C73.4194 23.6373 73.802 23.74 74.2034 23.74C74.614 23.74 74.9967 23.6373 75.3514 23.432C75.7154 23.2173 76.0047 22.9093 76.2194 22.508C76.4434 22.1067 76.5554 21.64 76.5554 21.108ZM82.5576 25.126C81.951 25.126 81.405 25.0187 80.9196 24.804C80.4436 24.58 80.0656 24.2813 79.7856 23.908C79.5056 23.5253 79.3563 23.1007 79.3376 22.634H80.9896C81.0176 22.9607 81.1716 23.236 81.4516 23.46C81.741 23.6747 82.1003 23.782 82.5296 23.782C82.9776 23.782 83.323 23.698 83.5656 23.53C83.8176 23.3527 83.9436 23.1287 83.9436 22.858C83.9436 22.5687 83.8036 22.354 83.5236 22.214C83.253 22.074 82.819 21.92 82.2216 21.752C81.643 21.5933 81.1716 21.4393 80.8076 21.29C80.4436 21.1407 80.1263 20.912 79.8556 20.604C79.5943 20.296 79.4636 19.89 79.4636 19.386C79.4636 18.9753 79.585 18.602 79.8276 18.266C80.0703 17.9207 80.4156 17.65 80.8636 17.454C81.321 17.258 81.8436 17.16 82.4316 17.16C83.309 17.16 84.0136 17.384 84.5456 17.832C85.087 18.2707 85.3763 18.8727 85.4136 19.638H83.8176C83.7896 19.2927 83.6496 19.0173 83.3976 18.812C83.1456 18.6067 82.805 18.504 82.3756 18.504C81.9556 18.504 81.6336 18.5833 81.4096 18.742C81.1856 18.9007 81.0736 19.1107 81.0736 19.372C81.0736 19.5773 81.1483 19.75 81.2976 19.89C81.447 20.03 81.629 20.142 81.8436 20.226C82.0583 20.3007 82.3756 20.3987 82.7956 20.52C83.3556 20.6693 83.813 20.8233 84.1676 20.982C84.5316 21.1313 84.8443 21.3553 85.1056 21.654C85.367 21.9527 85.5023 22.3493 85.5116 22.844C85.5116 23.2827 85.3903 23.6747 85.1476 24.02C84.905 24.3653 84.5596 24.636 84.1116 24.832C83.673 25.028 83.155 25.126 82.5576 25.126ZM86.7042 21.136C86.7042 20.3427 86.8628 19.6473 87.1802 19.05C87.5068 18.4433 87.9548 17.9767 88.5242 17.65C89.0935 17.3233 89.7468 17.16 90.4842 17.16C91.4175 17.16 92.1875 17.384 92.7942 17.832C93.4102 18.2707 93.8255 18.9007 94.0402 19.722H92.3182C92.1782 19.3393 91.9542 19.0407 91.6462 18.826C91.3382 18.6113 90.9508 18.504 90.4842 18.504C89.8308 18.504 89.3082 18.7373 88.9162 19.204C88.5335 19.6613 88.3422 20.3053 88.3422 21.136C88.3422 21.9667 88.5335 22.6153 88.9162 23.082C89.3082 23.5487 89.8308 23.782 90.4842 23.782C91.4082 23.782 92.0195 23.376 92.3182 22.564H94.0402C93.8162 23.348 93.3962 23.9733 92.7802 24.44C92.1642 24.8973 91.3988 25.126 90.4842 25.126C89.7468 25.126 89.0935 24.9627 88.5242 24.636C87.9548 24.3 87.5068 23.8333 87.1802 23.236C86.8628 22.6293 86.7042 21.9293 86.7042 21.136ZM97.2267 18.406C97.46 18.014 97.768 17.7107 98.1507 17.496C98.5427 17.272 99.0047 17.16 99.5367 17.16V18.812H99.1307C98.5054 18.812 98.0294 18.9707 97.7027 19.288C97.3854 19.6053 97.2267 20.156 97.2267 20.94V25H95.6307V17.286H97.2267V18.406ZM101.816 16.264C101.526 16.264 101.284 16.166 101.088 15.97C100.892 15.774 100.794 15.5313 100.794 15.242C100.794 14.9527 100.892 14.71 101.088 14.514C101.284 14.318 101.526 14.22 101.816 14.22C102.096 14.22 102.334 14.318 102.53 14.514C102.726 14.71 102.824 14.9527 102.824 15.242C102.824 15.5313 102.726 15.774 102.53 15.97C102.334 16.166 102.096 16.264 101.816 16.264ZM102.6 17.286V25H101.004V17.286H102.6ZM106.291 18.434C106.562 18.0607 106.93 17.7573 107.397 17.524C107.873 17.2813 108.4 17.16 108.979 17.16C109.66 17.16 110.276 17.3233 110.827 17.65C111.378 17.9767 111.812 18.4433 112.129 19.05C112.446 19.6473 112.605 20.3333 112.605 21.108C112.605 21.8827 112.446 22.578 112.129 23.194C111.812 23.8007 111.373 24.2767 110.813 24.622C110.262 24.958 109.651 25.126 108.979 25.126C108.382 25.126 107.85 25.0093 107.383 24.776C106.926 24.5427 106.562 24.244 106.291 23.88V25H104.695V14.64H106.291V18.434ZM110.981 21.108C110.981 20.576 110.869 20.1187 110.645 19.736C110.43 19.344 110.141 19.05 109.777 18.854C109.422 18.6487 109.04 18.546 108.629 18.546C108.228 18.546 107.845 18.6487 107.481 18.854C107.126 19.0593 106.837 19.358 106.613 19.75C106.398 20.142 106.291 20.604 106.291 21.136C106.291 21.668 106.398 22.1347 106.613 22.536C106.837 22.928 107.126 23.2267 107.481 23.432C107.845 23.6373 108.228 23.74 108.629 23.74C109.04 23.74 109.422 23.6373 109.777 23.432C110.141 23.2173 110.43 22.9093 110.645 22.508C110.869 22.1067 110.981 21.64 110.981 21.108ZM121.253 20.954C121.253 21.2433 121.235 21.5047 121.197 21.738H115.303C115.35 22.354 115.579 22.8487 115.989 23.222C116.4 23.5953 116.904 23.782 117.501 23.782C118.36 23.782 118.967 23.4227 119.321 22.704H121.043C120.81 23.4133 120.385 23.9967 119.769 24.454C119.163 24.902 118.407 25.126 117.501 25.126C116.764 25.126 116.101 24.9627 115.513 24.636C114.935 24.3 114.477 23.8333 114.141 23.236C113.815 22.6293 113.651 21.9293 113.651 21.136C113.651 20.3427 113.81 19.6473 114.127 19.05C114.454 18.4433 114.907 17.9767 115.485 17.65C116.073 17.3233 116.745 17.16 117.501 17.16C118.229 17.16 118.878 17.3187 119.447 17.636C120.017 17.9533 120.46 18.4013 120.777 18.98C121.095 19.5493 121.253 20.2073 121.253 20.954ZM119.587 20.45C119.578 19.862 119.368 19.3907 118.957 19.036C118.547 18.6813 118.038 18.504 117.431 18.504C116.881 18.504 116.409 18.6813 116.017 19.036C115.625 19.3813 115.392 19.8527 115.317 20.45H119.587ZM134.455 25H132.859L128.057 17.734V25H126.461V15.256H128.057L132.859 22.508V15.256H134.455V25ZM139.897 25.126C139.169 25.126 138.511 24.9627 137.923 24.636C137.335 24.3 136.873 23.8333 136.537 23.236C136.201 22.6293 136.033 21.9293 136.033 21.136C136.033 20.352 136.205 19.6567 136.551 19.05C136.896 18.4433 137.367 17.9767 137.965 17.65C138.562 17.3233 139.229 17.16 139.967 17.16C140.704 17.16 141.371 17.3233 141.969 17.65C142.566 17.9767 143.037 18.4433 143.383 19.05C143.728 19.6567 143.901 20.352 143.901 21.136C143.901 21.92 143.723 22.6153 143.369 23.222C143.014 23.8287 142.529 24.3 141.913 24.636C141.306 24.9627 140.634 25.126 139.897 25.126ZM139.897 23.74C140.307 23.74 140.69 23.642 141.045 23.446C141.409 23.25 141.703 22.956 141.927 22.564C142.151 22.172 142.263 21.696 142.263 21.136C142.263 20.576 142.155 20.1047 141.941 19.722C141.726 19.33 141.441 19.036 141.087 18.84C140.732 18.644 140.349 18.546 139.939 18.546C139.528 18.546 139.145 18.644 138.791 18.84C138.445 19.036 138.17 19.33 137.965 19.722C137.759 20.1047 137.657 20.576 137.657 21.136C137.657 21.9667 137.867 22.6107 138.287 23.068C138.716 23.516 139.253 23.74 139.897 23.74ZM155.838 17.286L153.444 25H151.764L150.21 19.302L148.656 25H146.976L144.568 17.286H146.192L147.802 23.488L149.44 17.286H151.106L152.674 23.46L154.27 17.286H155.838Z" fill="black" fill-opacity="0.78"/>
</g>
<defs>
<filter id="filter0_dd_37_136" x="0" y="0" width="171.678" height="43" filterUnits="userSpaceOnUse" color-interpolation-filters="sRGB">
<feFlood flood-opacity="0" result="BackgroundImageFix"/>
<feColorMatrix in="SourceAlpha" type="matrix" values="0 0 0 0 0 0 0 0 0 0 0 0 0 0 0 0 0 0 127 0" result="hardAlpha"/>
<feMorphology radius="1" operator="dilate" in="SourceAlpha" result="effect1_dropShadow_37_136"/>
<feOffset dx="1" dy="1"/>
<feGaussianBlur stdDeviation="1.5"/>
<feColorMatrix type="matrix" values="0 0 0 0 0 0 0 0 0 0 0 0 0 0 0 0 0 0 0.2 0"/>
<feBlend mode="normal" in2="BackgroundImageFix" result="effect1_dropShadow_37_136"/>
<feColorMatrix in="SourceAlpha" type="matrix" values="0 0 0 0 0 0 0 0 0 0 0 0 0 0 0 0 0 0 127 0" result="hardAlpha"/>
<feMorphology radius="1" operator="dilate" in="SourceAlpha" result="effect2_dropShadow_37_136"/>
<feOffset dx="1" dy="1"/>
<feGaussianBlur stdDeviation="2.5"/>
<feColorMatrix type="matrix" values="0 0 0 0 0.196078 0 0 0 0 0.196078 0 0 0 0 0.364706 0 0 0 0.2 0"/>
<feBlend mode="normal" in2="effect1_dropShadow_37_136" result="effect2_dropShadow_37_136"/>
<feBlend mode="normal" in="SourceGraphic" in2="effect2_dropShadow_37_136" result="shape"/>
</filter>
</defs>
</svg>
