<svg width="800" height="800" viewBox="0 0 800 800" fill="none" xmlns="http://www.w3.org/2000/svg">
<path d="M319.941 397.588L373.397 344.144C311.198 315.561 235.047 326.833 183.881 378.011C118.236 443.645 118.236 550.467 183.881 616.125C249.514 681.772 356.35 681.772 421.984 616.125C473.15 564.961 484.434 488.797 455.851 426.597L402.397 480.052C407.68 511.264 398.408 544.464 374.367 568.495C334.977 607.898 270.891 607.898 231.502 568.495C192.111 529.105 192.111 465.02 231.502 425.641C255.541 401.588 288.741 392.303 319.941 397.588Z" fill="#FF771D"/>
<path d="M505.669 376.791C559.3 467.222 547.297 586.07 469.613 663.744C377.697 755.659 228.164 755.659 136.261 663.744C44.3453 571.842 44.3453 422.295 136.261 330.381C213.922 252.708 332.784 240.705 423.214 294.325L471.989 245.536C354.197 166.328 192.686 178.708 88.6297 282.75C-29.5406 400.908 -29.5406 593.203 88.6297 711.361C206.802 829.545 399.072 829.545 517.242 711.361C621.309 607.306 633.677 445.795 554.444 327.989L505.669 376.791Z" fill="#FF771D"/>
<path d="M798.873 132.562C796.358 126.008 789.992 121.969 782.783 122.297L672.525 127.469L677.709 17.225C678.023 10.0031 673.984 3.66248 667.431 1.12186C660.916 -1.39377 653.178 0.417169 647.869 5.70154L530.214 123.367L524.262 250.433L310.366 464.316C299.484 461.85 287.608 464.769 279.128 473.247C265.969 486.406 265.969 507.719 279.128 520.878C292.275 534.037 313.6 534.037 326.759 520.878C335.225 512.398 338.158 500.522 335.691 489.628L549.575 275.731L676.628 269.794L794.295 152.112C799.592 146.817 801.391 139.103 798.873 132.562Z" fill="#FF771D"/>
</svg>
