<svg width="800" height="800" viewBox="0 0 800 800" fill="none" xmlns="http://www.w3.org/2000/svg">
<g clip-path="url(#clip0_4_52)">
<path d="M400 556.209C363.356 556.209 328.859 541.889 302.852 515.881C276.856 489.873 262.536 455.377 262.523 418.733C262.523 382.089 276.844 347.58 302.852 321.58C348.12 276.305 417.673 268.084 472.006 301.628C472.704 302.059 473.309 302.624 473.788 303.289C474.267 303.954 474.611 304.707 474.799 305.506C474.987 306.304 475.016 307.131 474.884 307.94C474.753 308.749 474.463 309.525 474.031 310.222C473.162 311.63 471.769 312.635 470.158 313.016C468.548 313.397 466.852 313.122 465.444 312.253C416.064 281.794 352.842 289.241 311.684 330.411C288.044 354.058 275.016 385.425 275.016 418.733C275.028 452.034 288.044 483.409 311.684 507.048C335.337 530.689 366.698 543.717 400 543.717H400.012C433.325 543.717 464.687 530.689 488.339 507.048C529.509 465.891 536.961 402.68 506.478 353.306C505.609 351.896 505.336 350.199 505.718 348.588C506.1 346.976 507.106 345.582 508.516 344.713C509.212 344.28 509.988 343.989 510.797 343.857C511.606 343.725 512.434 343.754 513.232 343.943C514.03 344.132 514.782 344.476 515.447 344.957C516.111 345.438 516.674 346.045 517.103 346.744C550.648 401.069 542.452 470.623 497.17 515.88C471.164 541.887 436.656 556.208 400.011 556.208C400.012 556.209 400.013 556.209 400 556.209Z" fill="#FF6600" stroke="#FF6600" stroke-width="15"/>
<path d="M400.013 512.32C376.03 512.32 352.061 503.195 333.813 484.945C297.316 448.423 297.316 389.023 333.813 352.527C363.772 322.561 410.259 316.42 446.83 337.595C447.54 338.005 448.163 338.551 448.663 339.202C449.162 339.853 449.528 340.596 449.74 341.389C449.952 342.181 450.006 343.008 449.898 343.821C449.79 344.634 449.522 345.418 449.111 346.128C448.278 347.56 446.912 348.603 445.311 349.029C443.711 349.456 442.007 349.23 440.572 348.403C408.892 330.052 368.614 335.388 342.644 361.358C311.013 392.988 311.013 444.47 342.644 476.113C374.275 507.731 425.752 507.731 457.394 476.113C483.377 450.105 488.694 409.82 470.313 378.117C469.9 377.408 469.632 376.624 469.522 375.811C469.413 374.997 469.466 374.17 469.676 373.377C469.887 372.584 470.252 371.84 470.751 371.188C471.249 370.537 471.871 369.989 472.581 369.578C474.016 368.752 475.719 368.526 477.319 368.951C478.919 369.376 480.285 370.417 481.12 371.847C502.333 408.442 496.209 454.959 466.227 484.944C447.963 503.195 423.983 512.295 400.013 512.32Z" fill="#FF6600" stroke="#FF6600" stroke-width="15"/>
<path d="M400 468.65C387.216 468.65 374.433 463.77 364.709 454.061C345.241 434.567 345.241 402.894 364.709 383.427C375.944 372.173 391.375 367.008 407.134 369.275C410.552 369.769 412.917 372.934 412.43 376.35C411.942 379.766 408.842 382.131 405.355 381.644C393.559 379.917 381.97 383.809 373.542 392.256C358.941 406.858 358.941 430.614 373.542 445.228C388.144 459.817 411.894 459.792 426.495 445.228C434.936 436.763 438.803 425.148 437.095 413.366C436.862 411.728 437.286 410.065 438.277 408.74C439.267 407.415 440.742 406.537 442.378 406.297C445.805 405.87 448.966 408.175 449.453 411.591C451.733 427.297 446.586 442.764 435.327 454.061C425.58 463.769 412.795 468.65 400 468.65ZM481.192 755.994H318.808C317.988 755.994 317.175 755.832 316.418 755.518C315.66 755.204 314.972 754.743 314.392 754.163L289.409 729.181C288.829 728.602 288.369 727.913 288.055 727.156C287.741 726.398 287.58 725.586 287.58 724.766V637.328C287.578 636.508 287.739 635.695 288.052 634.936C288.366 634.178 288.826 633.489 289.406 632.909C289.986 632.329 290.675 631.869 291.433 631.555C292.192 631.242 293.004 631.081 293.825 631.083H506.173C506.994 631.081 507.807 631.242 508.565 631.555C509.324 631.868 510.013 632.328 510.593 632.908C511.174 633.489 511.633 634.178 511.947 634.936C512.26 635.695 512.42 636.508 512.419 637.328V724.766C512.419 725.586 512.257 726.398 511.943 727.155C511.629 727.913 511.169 728.601 510.589 729.181L485.608 754.163C485.028 754.743 484.34 755.203 483.582 755.518C482.825 755.832 482.012 755.994 481.192 755.994ZM321.394 743.502H478.606L499.928 722.18V643.573H300.07V722.18L321.394 743.502Z" fill="#FF6600" stroke="#FF6600" stroke-width="15"/>
<path d="M281.334 681.045C279.733 681.045 278.194 680.43 277.033 679.327C275.873 678.223 275.182 676.716 275.102 675.117C274.919 671.678 277.566 668.75 281.005 668.555L518.336 656.064C521.753 655.625 524.716 658.528 524.898 661.969C524.943 662.787 524.825 663.607 524.552 664.38C524.279 665.153 523.856 665.864 523.308 666.474C522.759 667.083 522.096 667.578 521.356 667.931C520.616 668.284 519.814 668.487 518.995 668.53L281.664 681.02C281.553 681.045 281.444 681.045 281.334 681.045ZM281.334 718.52C279.733 718.52 278.194 717.905 277.034 716.801C275.874 715.698 275.182 714.191 275.102 712.592C274.919 709.152 277.566 706.225 281.005 706.03L518.336 693.539C521.753 693.123 524.716 696.003 524.898 699.442C525.081 702.881 522.436 705.834 518.995 706.005L281.664 718.495C281.553 718.52 281.444 718.52 281.334 718.52ZM506.173 643.573H293.825C292.169 643.572 290.581 642.914 289.41 641.743C288.239 640.572 287.581 638.984 287.58 637.328V598.609C224.942 559.452 187.652 492.484 187.652 418.733C187.652 301.63 282.908 206.366 400 206.366C517.091 206.366 612.347 301.628 612.347 418.733C612.347 492.484 575.058 559.477 512.419 598.609V637.327C512.418 638.983 511.76 640.571 510.589 641.742C509.418 642.914 507.83 643.572 506.173 643.573ZM300.07 631.083H499.928V595.122C499.928 592.927 501.075 590.902 502.941 589.753C563.628 553.183 599.856 489.239 599.856 418.733C599.856 308.522 510.198 218.858 400 218.858C289.8 218.858 200.142 308.522 200.142 418.733C200.142 489.239 236.372 553.183 297.058 589.778C297.978 590.334 298.739 591.118 299.267 592.054C299.795 592.99 300.071 594.047 300.07 595.122V631.083ZM400 780.975C352.963 780.975 338.788 753.699 338.203 752.528C337.837 751.795 337.619 750.998 337.561 750.18C337.503 749.363 337.607 748.543 337.866 747.766C338.126 746.989 338.536 746.27 339.073 745.652C339.61 745.033 340.264 744.527 340.997 744.161C341.726 743.791 342.521 743.568 343.337 743.507C344.152 743.445 344.972 743.545 345.749 743.802C346.525 744.058 347.244 744.465 347.862 745C348.481 745.535 348.987 746.187 349.353 746.919C349.902 747.942 361.27 768.486 400.002 768.486C438.877 768.486 450.184 747.772 450.648 746.895C452.245 743.869 455.991 742.65 459.041 744.211C462.091 745.772 463.322 749.48 461.798 752.53C461.211 753.698 447.037 780.975 400 780.975ZM131.453 424.978H6.53127C4.87517 424.977 3.28713 424.319 2.11609 423.148C0.945043 421.977 0.28679 420.389 0.285962 418.733C0.284317 417.912 0.444689 417.099 0.757885 416.34C1.07108 415.581 1.53095 414.892 2.11112 414.311C2.6913 413.73 3.38038 413.27 4.13888 412.956C4.89737 412.642 5.71037 412.48 6.53127 412.481H131.453C132.274 412.48 133.087 412.642 133.846 412.956C134.604 413.27 135.294 413.73 135.874 414.311C136.454 414.891 136.914 415.581 137.228 416.34C137.541 417.099 137.701 417.912 137.7 418.733C137.699 420.389 137.04 421.977 135.869 423.148C134.698 424.319 133.109 424.977 131.453 424.978ZM793.469 424.978H668.558C666.925 424.942 665.371 424.267 664.229 423.099C663.087 421.932 662.448 420.363 662.448 418.73C662.448 417.096 663.087 415.528 664.229 414.36C665.371 413.192 666.925 412.518 668.558 412.481H793.469C795.102 412.518 796.656 413.192 797.798 414.36C798.94 415.528 799.579 417.096 799.579 418.73C799.579 420.363 798.94 421.932 797.798 423.099C796.656 424.267 795.102 424.942 793.469 424.978ZM36.4907 575.555C35.2558 575.553 34.049 575.186 33.0222 574.5C31.9955 573.815 31.1945 572.84 30.7203 571.7C30.0862 570.168 30.0859 568.447 30.7195 566.915C31.3532 565.383 32.569 564.165 34.1 563.528L149.508 515.709C151.04 515.077 152.76 515.079 154.29 515.715C155.821 516.351 157.036 517.568 157.669 519.1C158.3 520.629 158.299 522.345 157.666 523.873C157.033 525.401 155.819 526.615 154.291 527.248L38.8813 575.067C38.1 575.409 37.2813 575.555 36.4907 575.555ZM648.114 322.189C646.879 322.191 645.67 321.825 644.643 321.139C643.616 320.452 642.815 319.476 642.344 318.334C641.711 316.804 641.711 315.085 642.345 313.555C642.979 312.024 644.194 310.808 645.723 310.173L761.12 262.38C762.651 261.749 764.369 261.75 765.899 262.383C767.429 263.017 768.645 264.231 769.281 265.759C769.914 267.29 769.914 269.009 769.281 270.539C768.647 272.069 767.433 273.285 765.903 273.92L650.506 321.713C649.748 322.027 648.935 322.189 648.114 322.189ZM121.78 703.198C120.959 703.199 120.147 703.038 119.389 702.724C118.632 702.41 117.943 701.95 117.364 701.369C116.784 700.789 116.323 700.101 116.009 699.343C115.695 698.586 115.533 697.773 115.533 696.953C115.533 696.133 115.695 695.321 116.009 694.563C116.323 693.805 116.784 693.117 117.364 692.538L205.692 604.197C206.863 603.026 208.452 602.368 210.108 602.368C211.764 602.368 213.352 603.026 214.523 604.197C215.695 605.368 216.352 606.956 216.352 608.613C216.352 610.269 215.695 611.857 214.523 613.028L126.195 701.369C125.616 701.949 124.928 702.41 124.17 702.724C123.412 703.038 122.6 703.199 121.78 703.198ZM502.781 176.858C501.755 176.857 500.744 176.603 499.839 176.119C498.933 175.634 498.161 174.934 497.591 174.08C497.021 173.226 496.67 172.245 496.569 171.223C496.468 170.202 496.62 169.171 497.013 168.222L544.806 52.825C545.12 52.0673 545.581 51.3788 546.161 50.7989C546.741 50.219 547.429 49.759 548.187 49.4452C548.945 49.1315 549.757 48.9701 550.578 48.9702C551.398 48.9704 552.21 49.1321 552.968 49.4461C553.726 49.7602 554.414 50.2204 554.994 50.8005C555.574 51.3806 556.034 52.0693 556.348 52.8272C556.662 53.5851 556.823 54.3973 556.823 55.2176C556.823 56.0379 556.661 56.8501 556.347 57.6078L508.553 173.005C508.078 174.145 507.277 175.119 506.25 175.804C505.223 176.49 504.016 176.857 502.781 176.858ZM400.013 156.414C399.192 156.415 398.38 156.254 397.622 155.94C396.863 155.626 396.175 155.166 395.594 154.586C395.014 154.006 394.554 153.318 394.24 152.56C393.927 151.802 393.765 150.989 393.766 150.169V25.2703C393.765 24.4499 393.927 23.6375 394.24 22.8795C394.554 22.1215 395.014 21.4328 395.594 20.8528C396.175 20.2727 396.863 19.8128 397.622 19.4991C398.38 19.1855 399.192 19.0244 400.013 19.025C400.833 19.0246 401.645 19.1859 402.403 19.4996C403.161 19.8133 403.85 20.2733 404.43 20.8533C405.01 21.4333 405.47 22.122 405.783 22.8799C406.097 23.6378 406.258 24.4501 406.258 25.2703V150.17C406.258 150.99 406.097 151.803 405.783 152.56C405.469 153.318 405.009 154.007 404.429 154.586C403.849 155.166 403.16 155.626 402.403 155.94C401.645 156.253 400.833 156.415 400.013 156.414ZM297.241 176.858C296.005 176.859 294.797 176.494 293.77 175.808C292.742 175.121 291.942 174.145 291.47 173.003L243.678 57.6063C243.045 56.076 243.045 54.357 243.679 52.8269C244.312 51.2967 245.527 50.0805 247.056 49.4453C248.587 48.8136 250.305 48.8145 251.835 49.4477C253.365 50.081 254.581 51.2949 255.217 52.8235L303.009 168.22C303.402 169.169 303.554 170.2 303.453 171.222C303.352 172.244 303.001 173.225 302.431 174.079C301.86 174.933 301.089 175.633 300.183 176.118C299.278 176.602 298.267 176.857 297.241 176.858ZM678.219 703.198C677.399 703.199 676.586 703.038 675.829 702.724C675.071 702.41 674.383 701.949 673.803 701.369L585.464 613.028C584.884 612.448 584.424 611.76 584.11 611.002C583.797 610.245 583.635 609.433 583.635 608.613C583.635 607.792 583.797 606.98 584.11 606.223C584.424 605.465 584.884 604.777 585.464 604.197C586.044 603.617 586.732 603.157 587.49 602.843C588.248 602.529 589.06 602.368 589.88 602.368C590.7 602.368 591.512 602.529 592.269 602.843C593.027 603.157 593.715 603.617 594.295 604.197L682.634 692.538C683.215 693.117 683.675 693.805 683.989 694.563C684.303 695.321 684.465 696.133 684.465 696.953C684.465 697.773 684.303 698.586 683.989 699.343C683.675 700.101 683.215 700.789 682.634 701.369C682.055 701.949 681.367 702.41 680.609 702.724C679.851 703.038 679.039 703.199 678.219 703.198ZM210.12 235.069C209.3 235.07 208.488 234.909 207.73 234.595C206.972 234.281 206.284 233.82 205.705 233.239L117.389 144.923C116.809 144.344 116.348 143.656 116.034 142.898C115.72 142.14 115.558 141.328 115.558 140.508C115.558 139.688 115.72 138.875 116.034 138.118C116.348 137.36 116.809 136.672 117.389 136.092C117.969 135.512 118.657 135.051 119.415 134.737C120.172 134.423 120.985 134.262 121.805 134.262C122.625 134.262 123.437 134.423 124.195 134.737C124.952 135.051 125.641 135.512 126.22 136.092L214.536 224.408C215.41 225.281 216.005 226.394 216.247 227.605C216.488 228.817 216.364 230.073 215.892 231.214C215.419 232.356 214.618 233.331 213.591 234.017C212.564 234.703 211.356 235.069 210.12 235.069ZM763.509 575.555C762.703 575.555 761.9 575.408 761.119 575.067L645.698 527.248C644.17 526.615 642.956 525.402 642.322 523.874C641.688 522.346 641.687 520.629 642.319 519.1C643.638 515.905 647.308 514.367 650.481 515.709L765.902 563.528C767.432 564.165 768.647 565.384 769.281 566.916C769.914 568.448 769.914 570.168 769.28 571.7C768.803 572.838 768.001 573.811 766.975 574.497C765.949 575.182 764.744 575.55 763.509 575.555ZM151.911 322.189C151.091 322.19 150.278 322.029 149.52 321.714L34.1235 273.922C32.5938 273.287 31.3787 272.071 30.745 270.541C30.1113 269.011 30.1109 267.291 30.7438 265.761C31.3797 264.232 32.5959 263.018 34.1257 262.384C35.6555 261.751 37.3741 261.75 38.9047 262.381L154.302 310.175C155.831 310.81 157.046 312.026 157.679 313.557C158.313 315.087 158.313 316.806 157.68 318.336C157.205 319.475 156.404 320.449 155.378 321.135C154.352 321.82 153.145 322.187 151.911 322.189Z" fill="#FF6600" stroke="#FF6600" stroke-width="15"/>
<path d="M398.49 425C397.901 425.001 397.317 424.885 396.772 424.659C396.227 424.433 395.732 424.102 395.316 423.685C394.899 423.268 394.568 422.773 394.342 422.229C394.116 421.684 394 421.1 394 420.511C394 419.921 394.116 419.337 394.342 418.792C394.568 418.248 394.899 417.753 395.316 417.336L597.335 215.316C597.752 214.899 598.247 214.568 598.791 214.342C599.336 214.116 599.92 214 600.51 214C601.099 214 601.683 214.116 602.228 214.342C602.772 214.568 603.267 214.899 603.684 215.316C604.101 215.733 604.432 216.227 604.658 216.772C604.884 217.317 605 217.901 605 218.49C605 219.08 604.884 219.664 604.658 220.208C604.432 220.753 604.101 221.248 603.684 221.664L401.664 423.686C401.247 424.103 400.753 424.434 400.208 424.66C399.664 424.885 399.08 425.001 398.49 425Z" fill="#FF6600" stroke="#FF6600" stroke-width="15"/>
<path d="M601.43 223.53C600.61 223.53 599.798 223.369 599.041 223.056C598.283 222.743 597.595 222.283 597.015 221.704C596.435 221.125 595.975 220.437 595.661 219.679C595.348 218.922 595.186 218.11 595.186 217.291C595.184 215.636 595.839 214.047 597.008 212.875C598.176 211.703 599.762 211.042 601.417 211.039L634.183 211.014L685.709 159.483L667.448 156.348C666.64 156.211 665.866 155.915 665.172 155.478C664.477 155.041 663.876 154.472 663.402 153.802C662.929 153.132 662.592 152.376 662.411 151.576C662.23 150.775 662.209 149.947 662.348 149.139C662.934 145.742 666.178 143.448 669.556 144.041L699.711 149.213C702.019 149.603 703.908 151.25 704.616 153.477C705.323 155.703 704.725 158.131 703.08 159.783L641.186 221.677C640.606 222.257 639.918 222.717 639.16 223.031C638.403 223.345 637.59 223.506 636.77 223.506L601.43 223.53Z" fill="#FF6600" stroke="#FF6600" stroke-width="15"/>
<path d="M601.43 223.53C599.774 223.529 598.186 222.871 597.015 221.7C595.844 220.529 595.186 218.94 595.186 217.284L595.198 181.933C595.198 180.273 595.856 178.688 597.027 177.517L658.825 115.72C659.632 114.912 660.647 114.341 661.757 114.07C662.867 113.799 664.03 113.839 665.119 114.184C666.208 114.528 667.182 115.164 667.935 116.023C668.688 116.882 669.19 117.931 669.388 119.056L674.656 149.113C674.799 149.921 674.78 150.749 674.602 151.551C674.424 152.352 674.09 153.11 673.619 153.782C673.147 154.454 672.548 155.026 671.855 155.466C671.163 155.907 670.39 156.206 669.581 156.347C666.203 156.908 662.947 154.67 662.348 151.272L659.153 133.048L607.688 184.519L607.675 217.283C607.674 218.939 607.016 220.527 605.845 221.699C604.674 222.87 603.086 223.528 601.43 223.53Z" fill="#FF6600" stroke="#FF6600" stroke-width="15"/>
</g>
<defs>
<clipPath id="clip0_4_52">
<rect width="800" height="800" fill="white"/>
</clipPath>
</defs>
</svg>
