<svg width="200" height="200" viewBox="0 0 200 200" fill="none" xmlns="http://www.w3.org/2000/svg">
<g clip-path="url(#clip0_50_2)">
<g filter="url(#filter0_ii_50_2)">
<path d="M143.32 0H56.6803C25.3766 0 0 25.3766 0 56.6803V143.32C0 174.623 25.3766 200 56.6803 200H143.32C174.623 200 200 174.623 200 143.32V56.6803C200 25.3766 174.623 0 143.32 0Z" fill="url(#paint0_linear_50_2)"/>
</g>
<path d="M62.495 134.136C57.275 134.136 53.315 132.651 50.615 129.681C47.915 126.621 46.565 122.886 46.565 118.476C46.565 114.246 47.735 109.881 50.075 105.381C52.415 100.791 55.97 96.5159 60.74 92.5559C65.6 88.5959 71.675 85.4909 78.965 83.2409C76.265 82.9709 73.61 82.2509 71 81.0809C68.39 79.8209 66.185 78.2009 64.385 76.2209C62.675 74.1509 61.82 71.8109 61.82 69.2009C61.82 67.2209 62.405 65.1959 63.575 63.1259C64.835 60.6959 66.77 58.7159 69.38 57.1859C72.08 55.5659 75.095 54.3509 78.425 53.5409C81.845 52.6409 85.175 52.1909 88.415 52.1909C91.475 52.1909 94.04 52.6409 96.11 53.5409C98.18 54.4409 99.8 55.4309 100.97 56.5109C102.59 53.7209 104.48 51.7859 106.64 50.7059C108.8 49.6259 110.825 49.0859 112.715 49.0859C114.515 49.0859 116 49.4459 117.17 50.1659C118.34 50.8859 118.925 51.7409 118.925 52.7309C118.925 53.5409 118.475 54.2609 117.575 54.8909C115.685 56.3309 114.065 57.7709 112.715 59.2109C111.365 60.5609 110.195 61.8659 109.205 63.1259C107.225 65.8259 105.335 68.9309 103.535 72.4409C101.735 75.9509 100.655 79.5959 100.295 83.3759C98.945 83.8259 97.955 83.3309 97.325 81.8909C96.785 80.3609 96.515 78.4259 96.515 76.0859C96.515 73.8359 96.695 71.4509 97.055 68.9309C97.505 66.3209 98.09 63.8909 98.81 61.6409C98.45 61.5509 98.045 61.5059 97.595 61.5059C97.145 61.5059 96.695 61.5059 96.245 61.5059C94.625 61.5059 92.915 61.7309 91.115 62.1809C89.315 62.5409 87.425 63.2159 85.445 64.2059C84.365 64.7459 83.15 65.6009 81.8 66.7709C80.54 67.9409 79.415 69.2909 78.425 70.8209C77.525 72.3509 77.075 73.8809 77.075 75.4109C77.075 76.6709 77.525 77.9309 78.425 79.1909C79.415 80.3609 81.125 81.3959 83.555 82.2959C85.175 82.3859 86.705 83.2859 88.145 84.9959C89.675 86.6159 90.44 88.1909 90.44 89.7209C90.44 91.0709 89.81 92.0159 88.55 92.5559C83.06 94.5359 78.245 97.3259 74.105 100.926C70.055 104.526 66.905 108.261 64.655 112.131C62.495 116.001 61.415 119.376 61.415 122.256C61.415 124.146 61.91 125.676 62.9 126.846C63.98 128.016 65.645 128.601 67.895 128.601C70.415 128.601 73.205 127.656 76.265 125.766C79.325 123.786 82.385 121.311 85.445 118.341C88.505 115.281 91.295 112.131 93.815 108.891C96.335 105.561 98.36 102.501 99.89 99.7109C100.34 99.8009 100.97 99.8459 101.78 99.8459C102.68 99.8459 103.445 100.071 104.075 100.521C104.795 100.881 105.155 101.646 105.155 102.816C105.155 103.716 104.84 104.931 104.21 106.461C103.58 107.991 102.5 109.971 100.97 112.401C98.99 115.461 96.425 118.341 93.275 121.041C90.125 123.651 86.75 125.946 83.15 127.926C79.55 129.906 75.95 131.436 72.35 132.516C68.75 133.596 65.465 134.136 62.495 134.136ZM142.373 135.081C137.783 135.081 134.678 133.821 133.058 131.301C131.438 128.781 130.628 125.856 130.628 122.526C130.628 120.096 130.898 117.666 131.438 115.236C131.978 112.806 132.563 110.646 133.193 108.756C133.823 106.866 134.273 105.561 134.543 104.841C135.623 101.601 136.748 98.4959 137.918 95.5259C139.178 92.4659 140.123 90.3509 140.753 89.1809C140.483 89.6309 139.493 90.9359 137.783 93.0959C136.073 95.2559 134.048 97.9559 131.708 101.196C129.458 104.346 127.208 107.721 124.958 111.321C122.708 114.831 120.818 118.251 119.288 121.581C117.848 124.821 117.128 127.611 117.128 129.951C117.128 131.571 117.488 132.741 118.208 133.461C118.478 133.731 118.613 133.956 118.613 134.136C118.613 134.586 118.118 134.721 117.128 134.541C115.058 134.181 113.033 133.821 111.053 133.461C109.073 133.011 107.408 132.156 106.058 130.896C104.798 129.546 104.168 127.341 104.168 124.281C104.168 121.851 104.798 118.926 106.058 115.506C107.318 111.996 108.803 108.396 110.513 104.706C112.223 101.016 113.708 97.5959 114.968 94.4459C115.238 93.7259 115.688 92.6459 116.318 91.2059C116.948 89.6759 117.578 88.1009 118.208 86.4809C118.928 84.7709 119.468 83.2859 119.828 82.0259C120.188 80.6759 120.278 79.7759 120.098 79.3259C119.918 78.9659 119.828 78.6959 119.828 78.5159C119.828 77.4359 120.548 76.8959 121.988 76.8959C123.428 76.8959 124.868 77.1209 126.308 77.5709C127.838 77.9309 129.188 78.5609 130.358 79.4609C131.618 80.3609 132.608 81.4409 133.328 82.7009C134.048 83.9609 134.408 85.3559 134.408 86.8859C134.408 87.8759 134.183 89.0459 133.733 90.3959C133.553 91.0259 133.148 91.8809 132.518 92.9609C131.978 93.9509 131.393 95.0309 130.763 96.2009C130.133 97.3709 129.458 98.5859 128.738 99.8459C128.108 101.106 127.883 101.781 128.063 101.871C130.313 97.9109 132.743 94.2209 135.353 90.8009C138.053 87.2909 140.483 84.2759 142.643 81.7559C144.893 79.2359 146.378 77.3909 147.098 76.2209C147.818 75.6809 148.988 75.4109 150.608 75.4109C152.498 75.4109 154.433 75.9959 156.413 77.1659C158.393 78.3359 159.383 80.4509 159.383 83.5109C159.383 86.0309 158.483 89.0909 156.683 92.6909C152.813 100.071 149.843 106.731 147.773 112.671C145.703 118.521 144.668 122.841 144.668 125.631C144.668 127.611 145.208 128.601 146.288 128.601C147.548 128.601 148.988 127.791 150.608 126.171C152.228 124.551 153.758 122.616 155.198 120.366C157.178 117.486 158.978 114.426 160.598 111.186C162.308 107.946 163.478 105.696 164.108 104.436C164.378 103.896 164.783 103.626 165.323 103.626C165.863 103.626 166.358 103.941 166.808 104.571C167.348 105.111 167.438 105.741 167.078 106.461C166.448 107.721 165.503 109.476 164.243 111.726C163.073 113.976 161.723 116.406 160.193 119.016C158.663 121.536 156.998 123.966 155.198 126.306C153.218 129.006 151.238 131.166 149.258 132.786C147.278 134.316 144.983 135.081 142.373 135.081Z" fill="white"/>
</g>
<defs>
<filter id="filter0_ii_50_2" x="-2.0348" y="-2.0348" width="204.07" height="204.07" filterUnits="userSpaceOnUse" color-interpolation-filters="sRGB">
<feFlood flood-opacity="0" result="BackgroundImageFix"/>
<feBlend mode="normal" in="SourceGraphic" in2="BackgroundImageFix" result="shape"/>
<feColorMatrix in="SourceAlpha" type="matrix" values="0 0 0 0 0 0 0 0 0 0 0 0 0 0 0 0 0 0 127 0" result="hardAlpha"/>
<feOffset dx="2.0348" dy="2.0348"/>
<feGaussianBlur stdDeviation="1.0174"/>
<feComposite in2="hardAlpha" operator="arithmetic" k2="-1" k3="1"/>
<feColorMatrix type="matrix" values="0 0 0 0 1 0 0 0 0 1 0 0 0 0 1 0 0 0 0.2 0"/>
<feBlend mode="normal" in2="shape" result="effect1_innerShadow_50_2"/>
<feColorMatrix in="SourceAlpha" type="matrix" values="0 0 0 0 0 0 0 0 0 0 0 0 0 0 0 0 0 0 127 0" result="hardAlpha"/>
<feOffset dx="-2.0348" dy="-2.0348"/>
<feGaussianBlur stdDeviation="1.0174"/>
<feComposite in2="hardAlpha" operator="arithmetic" k2="-1" k3="1"/>
<feColorMatrix type="matrix" values="0 0 0 0 0 0 0 0 0 0 0 0 0 0 0 0 0 0 0.05 0"/>
<feBlend mode="normal" in2="effect1_innerShadow_50_2" result="effect2_innerShadow_50_2"/>
</filter>
<linearGradient id="paint0_linear_50_2" x1="100" y1="0" x2="100" y2="200" gradientUnits="userSpaceOnUse">
<stop stop-color="#019541"/>
<stop offset="1" stop-color="#019541"/>
</linearGradient>
<clipPath id="clip0_50_2">
<rect width="200" height="200" fill="white"/>
</clipPath>
</defs>
</svg>
