 <svg fill="currentColor" preserveAspectRatio="xMidYMid meet" role="img" height="20" width="20" viewBox="0 0 29 27"><g fill="none" fill-rule="evenodd"><rect height="77" opacity=".1" rx="10" stroke="#000" width="265" x="-23.5" y="-25.5"></rect><g transform="translate(0 -1)"><path d="m28 3.97635175v18.25894235c0 2.2741137-1.8435334 4.1176471-4.1176471 4.1176471h-18.25894233c-.90964547 0-1.64705882-.7374134-1.64705882-1.6470588 0-.4368272.17352891-.8557631.48241236-1.1646465l20.72953059-20.72953061c.6432165-.64321648 1.6860765-.64321648 2.3292929 0 .3088835.30888344.4824124.7278193.4824124 1.16464646z" fill="#e36b71"></path><path d="m28 19.7647059v2.4705882c0 2.2741137-1.8435334 4.1176471-4.1176471 4.1176471h-18.25894233c-.90964547 0-1.64705882-.7374134-1.64705882-1.6470588 0-.3288805.0983623-.6476195.27879555-.9168863.17006602.0607993.35359783.0933568.54473386.0933568h19.08247174c2.2741137 0 4.1176471-1.8435333 4.1176471-4.117647z" fill="#ca4a51"></path><path d="m28 3.97635175v19.08247175c0 1.819291-1.4748267 3.2941177-3.2941176 3.2941177h-19.08247183c-.90964547 0-1.64705882-.7374134-1.64705882-1.6470588 0-.4368272.17352891-.8557631.48241236-1.1646465l20.72953059-20.72953061c.6432165-.64321648 1.6860765-.64321648 2.3292929 0 .3088835.30888344.4824124.7278193.4824124 1.16464646z" stroke="#000" stroke-width="1.647059"></path><path d="m6.48489602 13.115104c-2.05829273-2.0582928-2.05829273-5.39544465 0-7.45373739 2.05829274-2.05829274 5.39544468-2.05829274 7.45373738 0s2.0582927 5.39544459 0 7.45373739c-2.0582927 2.0582927-5.39544464 2.0582927-7.45373738 0z" fill="#e36b71" stroke="#de5144" stroke-width=".878431"></path><path d="m13.9386334 5.66136661c2.0582927 2.05829274 2.0582927 5.39544459 0 7.45373739-2.0582927 2.0582927-5.39544464 2.0582927-7.45373738 0-.28292382-.2829238-.52695818-.5900105-.73210308-.9146173 2.03823012 1.2868152 4.76394516 1.0423949 6.53878166-.7324415 1.7748364-1.77483647 2.0192567-4.50055155.733261-6.53728712.3237873.20365035.630874.44768471.9137978.73060853z" fill="#ca4a51"></path><g stroke="#000" stroke-width="1.647059"><path d="m6.48489602 13.115104c-2.05829273-2.0582928-2.05829273-5.39544465 0-7.45373739 2.05829274-2.05829274 5.39544468-2.05829274 7.45373738 0s2.0582927 5.39544459 0 7.45373739c-2.0582927 2.0582927-5.39544464 2.0582927-7.45373738 0z"></path><path d="m4.099581 14.730122-3.282074 3.107303" stroke-linecap="round"></path><path d="m5.970588 17.20071-1.102838 1.223336" stroke-linecap="round"></path></g></g></g></svg>
                                              