 <svg fill="currentColor" preserveAspectRatio="xMidYMid meet" height="25" width="25" viewBox="0 0 25 29"><g fill="none" fill-rule="evenodd"><rect height="77" opacity=".1" rx="10" stroke="#000" width="265" x="-22.5" y="-23.5"></rect><g transform="translate(1)"><path d="m2.62894444 5.70894444 19.38211116 19.38211116c.6014074.6014074.6014074 1.5764814 0 2.1778888-.2888061.2888061-.6805111.4510556-1.0889445.4510556h-17.8421111c-1.70103703 0-3.08-1.378963-3.08-3.08v-17.84211111c0-.85051852.68948149-1.54 1.54-1.54.40843339 0 .80013842.16224953 1.08894444.45105555z" fill="#79f25c" stroke="#1c8503" stroke-width=".821333"></path><path d="m19.7010556 22.7810556 2.31 2.31c.6014074.6014074.6014074 1.5764814 0 2.1778888-.2888061.2888061-.6805111.4510556-1.0889445.4510556h-17.0721111c-1.66599472 0-3.08483669-1.0581867-3.62106496-2.5390991.40866485.1481983.8504172.2290991 1.31106496.2290991h17.0721111c.4084334 0 .8001384-.1622495 1.0889445-.4510556.6014074-.6014074.6014074-1.5764814 0-2.1778888z" fill="#50c754"></path><path d="m2.62894444 5.70894444 19.38211116 19.38211116c.6014074.6014074.6014074 1.5764814 0 2.1778888-.2888061.2888061-.6805111.4510556-1.0889445.4510556h-17.8421111c-1.70103703 0-3.08-1.378963-3.08-3.08v-17.84211111c0-.85051852.68948149-1.54 1.54-1.54.40843339 0 .80013842.16224953 1.08894444.45105555z" stroke="#000" stroke-width="1.555556"></path><path d="m13.2383259 15.2649778c-1.9245037-1.9245037-1.9245037-5.0447408 0-6.96924446 1.9245037-1.92450371 5.0447408-1.92450371 6.9692445 0 1.9245037 1.92450366 1.9245037 5.04474076 0 6.96924446s-5.0447408 1.9245037-6.9692445 0z" fill="#79f25c" stroke="#1c8503" stroke-width=".821333"></path><path d="m20.2075704 8.29573334c1.9245037 1.92450366 1.9245037 5.04474076 0 6.96924446s-5.0447408 1.9245037-6.9692445 0c-.2646083-.2646084-.4928346-.5518218-.6846786-.855424 1.9055746 1.2034589 4.4543427.9750044 6.1139231-.684576s1.8880349-4.20834847.6853635-6.11273643c.3031076.19089011.590163.41901851.8546365.68349197z" fill="#289f4e" opacity=".5"></path><g stroke="#000" stroke-width="1.555556"><path d="m13.2383259 15.2649778c-1.9245037-1.9245037-1.9245037-5.0447408 0-6.96924446 1.9245037-1.92450371 5.0447408-1.92450371 6.9692445 0 1.9245037 1.92450366 1.9245037 5.04474076 0 6.96924446s-5.0447408 1.9245037-6.9692445 0z"></path><path d="m12.573921 2.955205-5.859247.117076" stroke-linecap="round" transform="matrix(.70710678 .70710678 -.70710678 .70710678 5.107098 -6.05255)"></path><path d="m10.029297 6.16h-2.329297" stroke-linecap="round" transform="matrix(.70710678 .70710678 -.70710678 .70710678 6.952173 -4.464031)"></path></g></g></g></svg>