<svg fill="currentColor" height="25" width="25" viewBox="0 0 25 29"><g fill="none" fill-rule="evenodd"><rect height="77" opacity=".1" rx="10" stroke="#000" width="265" x="-22.5" y="-23.5"/><path d="M3.629 5.709 23.01 25.09a1.54 1.54 0 0 1-1.089 2.629H4.08A3.08 3.08 0 0 1 1 24.64V6.798a1.54 1.54 0 0 1 2.629-1.09z" fill="#79f25c" stroke="#1c8503" stroke-width=".821"/><path d="m20.701 22.781 2.31 2.31a1.54 1.54 0 0 1-1.089 2.629H4.85a3.852 3.852 0 0 1-3.621-2.54c.409.15.85.23 1.311.23h17.072a1.54 1.54 0 0 0 1.09-2.629z" fill="#50c754"/><path d="M3.629 5.709 23.01 25.09a1.54 1.54 0 0 1-1.089 2.629H4.08A3.08 3.08 0 0 1 1 24.64V6.798a1.54 1.54 0 0 1 2.629-1.09z" stroke="#000" stroke-width="1.556"/><path d="M14.238 15.265a4.929 4.929 0 1 1 6.97-6.97 4.929 4.929 0 0 1-6.97 6.97z" fill="#79f25c" stroke="#1c8503" stroke-width=".821"/><path d="M21.208 8.296a4.928 4.928 0 1 1-7.654 6.114 4.93 4.93 0 0 0 6.799-6.798c.303.191.59.42.855.684z" fill="#289f4e" opacity=".5"/><g stroke="#000" stroke-width="1.556"><path d="M14.238 15.265a4.929 4.929 0 1 1 6.97-6.97 4.929 4.929 0 0 1-6.97 6.97z"/><path d="M12.909 4.928 8.683.868m2.005 6.116L9.041 5.336" stroke-linecap="round"/></g></g></svg>